{"glyphs":{"0":{"ha":880,"x_min":71,"x_max":809,"o":"m 441 913 q 659 826 557 913 q 731 740 712 773 q 809 460 809 614 q 691 129 809 271 q 439 9 580 9 q 184 135 297 9 q 71 458 71 275 l 71 462 q 201 806 71 663 q 441 913 308 913 m 125 460 q 218 178 125 302 q 301 104 271 118 q 435 63 367 63 l 446 63 q 639 152 549 63 q 723 284 696 214 q 756 462 756 371 q 640 769 756 640 q 441 860 548 860 q 215 740 313 860 q 125 460 125 619 z "},"1":{"ha":420,"x_min":102,"x_max":273,"o":"m 102 897 l 272 897 l 273 897 l 273 -6 l 272 -7 l 219 -7 l 218 -6 l 218 844 l 102 844 l 102 844 l 102 897 l 102 897 z "},"2":{"ha":634,"x_min":66,"x_max":567,"o":"m 318 909 q 501 827 432 909 q 550 743 532 790 q 567 642 567 692 q 538 525 567 577 l 321 277 l 132 60 l 241 60 l 562 60 l 562 7 l 562 6 l 79 6 l 78 7 l 78 79 q 264 292 249 275 l 424 476 q 494 557 494 555 q 513 643 513 595 q 483 760 513 703 q 321 856 427 856 l 315 856 q 174 795 226 856 q 149 759 157 774 q 130 705 139 739 q 120 641 120 666 l 66 641 l 66 642 q 85 745 66 686 q 119 812 99 783 q 318 909 189 909 z "},"3":{"ha":672,"x_min":62,"x_max":594,"o":"m 336 917 q 477 869 413 917 q 508 842 487 863 q 557 761 543 804 q 571 682 571 721 l 571 678 q 519 531 571 598 q 479 492 497 505 q 446 471 458 476 l 446 470 q 505 431 472 458 q 534 400 528 409 q 594 233 594 326 q 536 70 594 144 q 496 29 515 44 q 328 -30 420 -30 q 153 35 231 -30 q 121 67 131 55 q 68 176 81 117 q 62 230 62 205 l 62 233 l 62 234 l 115 234 l 115 233 l 115 233 q 149 121 115 174 q 178 85 157 108 q 202 64 191 73 q 328 24 260 24 q 447 60 391 24 q 480 88 458 67 q 513 132 504 113 q 540 230 540 180 l 540 238 q 507 346 540 293 q 478 382 498 361 q 443 411 460 399 q 332 444 388 444 l 261 444 l 260 444 l 260 497 l 343 497 q 417 516 377 497 q 454 541 435 525 q 477 564 469 555 q 517 680 517 616 q 476 797 517 744 q 446 826 459 816 q 338 863 396 863 l 335 863 q 218 819 271 863 q 155 676 155 762 l 155 674 l 102 674 l 102 680 q 155 831 102 763 q 193 867 178 857 q 336 917 258 917 z "},"4":{"ha":636,"x_min":16,"x_max":578,"o":"m 108 225 l 442 225 l 442 817 l 338 632 l 165 326 q 108 225 148 296 m 428 899 l 495 899 l 496 899 l 496 226 l 577 226 l 578 225 l 578 172 l 577 172 l 496 172 l 496 -5 l 495 -6 l 443 -6 l 442 -5 l 442 172 l 17 172 l 16 172 l 170 444 l 267 614 l 422 890 l 428 899 z "},"5":{"ha":737,"x_min":55,"x_max":663,"o":"m 602 899 l 602 899 l 602 846 l 602 846 l 307 846 l 241 589 l 241 589 q 345 606 292 606 q 544 537 454 606 q 597 482 579 507 q 627 435 616 458 q 663 292 663 365 l 663 285 q 622 132 663 207 q 586 81 609 109 q 548 43 560 52 q 510 16 530 29 q 449 -12 483 0 q 351 -29 397 -29 l 339 -29 q 212 0 277 -29 q 162 28 188 11 q 123 62 144 41 q 90 100 98 87 q 60 149 72 123 l 55 159 l 104 181 q 130 136 113 159 q 162 98 140 121 q 214 59 191 71 q 342 24 276 24 l 349 24 q 491 68 422 24 q 530 100 507 79 q 570 149 557 128 q 610 289 610 214 q 546 460 610 384 q 514 492 526 484 q 406 546 465 532 q 345 553 374 553 q 200 510 269 553 l 160 487 l 159 487 l 159 488 l 229 761 l 265 899 l 602 899 z "},"6":{"ha":742,"x_min":65,"x_max":680,"o":"m 119 282 l 119 280 q 178 117 119 191 q 216 79 200 91 q 372 24 287 24 q 540 88 465 24 q 570 120 564 111 q 597 161 589 144 q 626 280 626 218 l 626 282 q 565 448 626 374 q 532 481 543 473 q 372 538 460 538 q 211 479 283 538 q 175 443 186 457 q 119 282 119 370 m 385 915 l 430 888 l 430 888 q 404 842 430 886 l 246 571 l 241 562 q 370 592 304 592 l 374 592 q 524 551 452 592 q 572 518 546 539 q 607 482 597 494 q 642 431 631 452 q 680 286 680 359 l 680 277 q 643 134 680 205 q 606 80 629 108 q 565 39 583 53 q 373 -29 478 -29 l 372 -29 q 172 45 261 -29 q 137 81 146 69 q 111 119 119 103 q 86 167 98 140 q 65 277 65 223 l 65 286 q 116 453 65 372 l 262 704 l 384 915 l 385 915 z "},"7":{"ha":595,"x_min":36,"x_max":560,"o":"m 560 899 l 560 836 q 473 672 560 835 l 338 415 l 175 108 l 112 -12 l 111 -12 l 64 12 l 64 13 l 206 281 l 338 530 l 498 833 l 505 846 l 37 846 l 36 847 l 36 899 l 560 899 z "},"8":{"ha":693,"x_min":67,"x_max":625,"o":"m 172 688 q 223 565 172 619 q 347 514 277 514 q 460 557 409 514 q 484 582 478 573 q 521 686 521 631 l 521 692 q 490 789 521 742 q 467 814 483 798 q 425 844 444 836 q 349 863 387 863 l 343 863 q 239 827 289 863 q 206 793 219 810 q 172 688 172 745 m 121 243 l 121 241 q 178 98 121 162 q 207 71 199 76 q 347 24 270 24 q 495 79 429 24 q 525 110 515 96 q 572 242 572 170 q 520 381 572 319 q 491 410 500 404 q 346 460 426 460 q 215 420 275 460 q 180 389 201 411 q 138 328 153 361 q 121 243 121 286 m 346 917 q 500 857 432 917 q 530 823 524 834 q 574 688 574 762 q 523 545 574 610 q 490 512 504 523 q 460 491 474 498 l 460 490 q 500 469 478 483 q 540 439 517 459 q 574 399 564 414 q 625 243 625 327 l 625 241 q 572 82 625 155 q 543 50 562 69 q 501 16 520 28 q 346 -29 429 -29 q 165 35 247 -29 q 126 75 138 60 q 97 119 106 101 q 67 239 67 178 l 67 246 q 98 368 67 307 q 128 412 110 389 q 169 452 152 439 q 212 481 195 473 q 233 490 221 486 l 219 499 q 182 530 205 508 q 155 565 165 547 q 118 689 118 623 q 173 837 118 771 q 199 863 190 856 q 346 917 265 917 z "},"9":{"ha":739,"x_min":62,"x_max":677,"o":"m 116 608 l 116 607 q 161 461 116 528 q 193 423 170 447 q 237 388 220 398 q 370 351 300 351 q 513 395 446 351 q 551 427 527 405 q 582 467 575 454 q 609 523 597 490 q 623 606 623 565 l 623 609 q 564 772 623 698 q 528 808 540 800 q 371 865 456 865 l 369 865 q 215 812 286 865 q 182 781 205 804 q 158 749 168 764 q 116 608 116 684 m 365 918 l 374 918 q 513 882 444 918 q 568 844 539 869 q 602 810 593 821 q 644 749 629 779 q 677 612 677 680 l 677 603 q 642 463 677 532 q 488 197 633 448 l 357 -26 q 323 -5 356 -25 q 311 1 312 0 l 426 198 l 500 327 q 370 297 438 297 q 173 369 261 297 q 132 410 144 395 q 99 460 111 437 q 62 603 62 531 l 62 612 q 111 775 62 696 q 271 901 168 865 q 365 918 320 918 z "},"\u0000":{"ha":694,"x_min":0,"x_max":0,"o":""}," ":{"ha":345,"x_min":0,"x_max":0,"o":""},"!":{"ha":391,"x_min":180,"x_max":261,"o":"m 188 954 l 254 954 l 254 953 l 248 157 l 247 157 l 195 157 l 194 157 l 187 953 l 188 954 m 220 81 l 221 81 q 256 59 243 81 q 261 40 261 50 q 244 7 261 20 q 222 0 233 0 l 219 0 q 189 15 202 0 q 180 38 180 26 l 180 42 q 199 75 180 61 q 220 81 210 81 z "},"\"":{"ha":436,"x_min":94,"x_max":290,"o":"m 148 1017 l 148 746 l 94 746 l 94 1017 l 148 1017 m 290 1017 l 290 746 l 237 746 l 237 1017 l 290 1017 z "},"#":{"ha":646,"x_min":24,"x_max":621,"o":"m 237 583 l 203 380 l 400 380 l 434 583 l 237 583 m 237 904 l 289 895 l 246 637 l 443 637 q 487 898 486 897 q 539 888 538 889 l 497 637 l 621 637 l 621 636 l 621 584 l 621 583 l 488 583 l 454 380 l 585 380 l 585 326 l 446 326 l 395 27 l 342 36 l 391 326 l 194 326 l 144 33 l 92 43 l 140 326 l 25 326 l 24 327 l 24 380 l 149 380 l 149 380 l 182 583 l 60 583 l 60 584 l 60 636 l 60 637 l 191 637 l 236 904 l 237 904 z "},"$":{"ha":669,"x_min":66,"x_max":597,"o":"m 357 957 l 357 882 q 425 871 382 882 q 519 818 476 855 q 550 787 544 795 q 574 751 567 766 q 578 745 578 747 l 530 722 q 500 762 522 736 q 341 829 435 829 q 212 793 267 829 q 184 768 202 786 q 154 721 161 740 q 141 658 141 690 q 188 563 141 596 q 265 524 211 544 q 423 481 321 503 q 481 460 459 472 q 520 436 500 451 q 557 399 544 416 q 597 275 597 343 q 557 144 597 206 q 529 112 548 131 l 520 104 q 484 77 498 86 q 433 55 463 66 q 385 43 408 47 q 357 40 374 41 l 357 -34 l 356 -35 l 304 -35 l 303 -34 l 303 41 q 292 42 303 41 q 245 53 265 47 q 202 71 223 60 q 155 101 180 82 q 123 130 143 110 q 83 182 99 157 q 66 217 72 202 q 115 239 109 237 q 138 196 123 219 q 168 161 148 182 q 203 132 189 140 q 334 93 263 93 l 337 93 q 465 129 405 93 q 495 153 477 137 q 520 186 511 172 q 544 272 544 229 l 544 277 q 509 373 544 330 q 484 396 492 391 q 452 415 465 409 q 399 432 427 426 q 222 484 277 458 q 166 512 194 494 q 99 592 117 545 q 87 659 87 622 q 142 802 87 738 q 174 831 163 823 q 217 857 197 848 q 260 873 235 865 q 300 880 278 878 l 303 881 l 303 957 l 357 957 z "},"%":{"ha":890,"x_min":63,"x_max":827,"o":"m 229 958 l 230 958 q 348 908 296 958 q 396 791 396 857 q 342 667 396 720 q 276 631 310 640 q 229 624 252 624 q 113 673 163 624 q 85 709 92 694 q 63 787 63 747 l 63 794 q 100 896 63 848 q 129 924 118 917 q 229 958 175 958 m 122 791 l 122 791 q 158 710 122 744 q 229 683 190 683 q 307 716 273 683 q 327 747 323 734 q 337 788 337 768 l 337 793 q 307 867 337 832 q 229 899 273 899 q 146 859 181 899 q 122 791 122 828 m 660 326 q 784 272 731 326 q 827 160 827 222 q 779 42 827 93 q 736 12 755 20 q 663 -7 701 -7 l 658 -7 q 546 38 597 -7 q 518 73 525 60 q 494 159 494 114 l 494 161 q 543 278 494 227 q 660 326 595 326 m 553 160 q 592 77 553 111 q 660 52 623 52 q 747 95 711 52 q 768 160 768 125 q 730 242 768 207 q 664 267 698 267 l 657 267 q 590 241 623 267 q 553 160 553 207 m 793 963 l 186 14 l 184 14 l 119 14 l 119 14 l 726 963 l 793 963 z "},"&":{"ha":789,"x_min":68,"x_max":730,"o":"m 264 774 q 281 709 264 737 q 363 573 309 658 q 454 632 409 600 q 505 675 475 646 q 533 709 527 699 q 547 734 543 722 q 552 770 552 749 q 456 892 552 863 q 408 900 431 900 q 309 865 355 900 q 285 841 294 852 q 264 779 264 814 l 264 774 m 121 217 l 121 216 q 184 84 121 130 q 216 66 199 73 q 288 54 245 54 l 290 54 q 562 174 425 54 q 345 500 431 366 q 264 443 309 478 q 208 394 241 425 q 159 338 172 356 q 138 301 146 319 q 121 217 121 267 m 409 954 q 519 924 464 954 q 556 897 534 916 q 606 770 606 846 q 588 696 606 727 q 571 669 583 686 q 538 632 561 656 q 483 587 503 600 q 416 542 460 570 l 391 528 q 562 269 466 411 l 602 210 q 684 294 653 260 l 691 301 l 730 264 q 642 174 695 227 l 633 165 l 711 52 l 668 21 q 593 129 623 85 q 525 77 556 98 q 460 40 494 57 q 294 0 374 0 l 285 0 q 161 35 213 0 q 126 63 148 42 q 96 104 105 85 q 68 213 68 154 l 68 220 q 81 303 68 264 q 98 342 88 323 q 130 388 111 363 q 218 475 163 430 q 317 546 271 517 q 233 686 264 629 q 211 771 211 726 l 211 780 q 285 914 211 860 q 409 954 342 954 z "},"'":{"ha":224,"x_min":74,"x_max":127,"o":"m 127 1017 l 127 746 l 74 746 l 74 1017 l 127 1017 z "},"(":{"ha":486,"x_min":90,"x_max":383,"o":"m 361 1028 l 381 1028 l 383 1026 l 383 977 l 381 975 l 365 975 q 193 783 264 975 q 143 466 143 640 q 232 19 143 186 q 330 -79 277 -58 q 378 -85 346 -85 l 381 -85 l 383 -87 l 383 -136 l 381 -138 l 369 -138 q 123 152 207 -138 q 90 422 90 284 l 90 469 q 194 911 90 730 q 361 1028 270 1028 z "},")":{"ha":486,"x_min":103,"x_max":396,"o":"m 125 1028 q 292 911 216 1028 q 396 469 396 730 l 396 422 q 363 152 396 284 q 117 -138 279 -138 l 105 -138 l 103 -136 l 103 -87 l 105 -85 l 108 -85 q 157 -79 140 -85 q 254 19 209 -58 q 343 466 343 186 q 294 783 343 640 q 121 975 222 975 l 105 975 l 103 977 l 103 1026 l 105 1028 l 125 1028 z "},"*":{"ha":676,"x_min":107,"x_max":2291,"o":"m 2285 7509 l 2280 7490 l 2283 7487 l 2291 7490 l 2288 7509 l 2285 7509 m 309 1020 l 362 1020 l 362 824 l 363 824 l 546 890 l 564 840 q 536 829 564 839 l 380 774 l 494 619 l 452 587 l 451 587 l 336 744 l 335 744 q 220 587 334 742 l 177 619 l 290 774 l 107 839 l 107 840 l 125 890 l 125 890 l 309 824 l 309 1019 l 309 1020 z "},"+":{"ha":563,"x_min":47,"x_max":529,"o":"m 262 305 l 47 305 l 47 359 l 262 359 l 262 572 l 262 573 l 315 573 l 315 572 l 315 359 l 528 359 l 529 358 l 529 306 l 528 305 l 315 305 l 315 92 l 262 92 l 262 305 z "},",":{"ha":243,"x_min":43,"x_max":139,"o":"m 99 78 q 132 60 119 78 q 139 31 139 49 q 80 -72 139 -19 q 59 -89 64 -86 l 43 -68 q 83 0 83 -30 q 62 20 69 6 q 58 38 58 28 q 76 71 58 58 q 99 78 86 78 z "},"-":{"ha":585,"x_min":52,"x_max":530,"o":"m 52 359 l 530 359 l 530 358 l 530 306 l 530 305 l 52 305 l 52 359 z "},".":{"ha":286,"x_min":102,"x_max":183,"o":"m 142 81 l 143 81 q 178 59 165 81 q 183 40 183 50 q 166 7 183 20 q 144 0 155 0 l 141 0 q 111 15 124 0 q 102 38 102 26 l 102 42 q 121 75 102 61 q 142 81 132 81 z "},"/":{"ha":416,"x_min":1,"x_max":400,"o":"m 347 928 l 399 928 l 400 928 l 54 -33 l 54 -34 l 1 -34 l 1 -33 l 347 928 l 347 928 z "},":":{"ha":310,"x_min":127,"x_max":208,"o":"m 166 644 l 168 644 q 203 623 190 644 q 208 604 208 614 q 191 571 208 584 q 168 564 180 564 l 165 564 q 136 578 149 564 q 127 602 127 590 l 127 606 q 146 638 127 625 q 166 644 156 644 m 166 81 l 168 81 q 203 59 190 81 q 208 40 208 50 q 191 7 208 20 q 168 0 180 0 l 165 0 q 136 15 149 0 q 127 38 127 26 l 127 42 q 146 75 127 61 q 166 81 156 81 z "},";":{"ha":279,"x_min":81,"x_max":177,"o":"m 136 644 l 137 644 q 172 623 159 644 q 177 604 177 614 q 160 571 177 584 q 138 564 149 564 l 135 564 q 105 578 118 564 q 96 602 96 590 l 96 606 q 115 638 96 625 q 136 644 125 644 m 137 80 q 170 62 157 80 q 177 33 177 51 q 118 -70 177 -17 q 97 -87 102 -84 l 81 -66 q 121 2 121 -28 q 100 22 107 8 q 96 40 96 30 q 114 73 96 60 q 137 80 124 80 z "},"<":{"ha":590,"x_min":79,"x_max":459,"o":"m 425 670 l 459 629 q 264 469 457 627 l 132 361 l 132 350 q 297 214 140 343 l 459 82 q 425 41 427 42 l 243 189 l 79 324 l 79 387 l 301 568 l 425 670 z "},"=":{"ha":569,"x_min":64,"x_max":505,"o":"m 64 460 l 504 460 l 505 460 l 505 408 l 504 407 l 64 407 l 64 460 m 64 257 l 504 257 l 505 256 l 505 204 l 504 203 l 64 203 l 64 257 z "},">":{"ha":590,"x_min":131,"x_max":511,"o":"m 290 568 l 511 387 l 511 324 l 347 189 l 165 41 q 131 82 163 42 l 293 214 q 458 350 450 343 l 458 361 l 327 469 q 131 629 134 627 l 165 670 l 290 568 z "},"?":{"ha":654,"x_min":90,"x_max":591,"o":"m 334 88 q 370 69 355 88 q 378 45 378 58 q 356 7 378 21 q 336 1 345 1 l 332 1 q 298 19 313 1 q 290 45 290 31 q 309 80 290 66 q 334 88 321 88 m 340 979 q 494 924 424 979 q 531 886 521 899 q 555 849 547 865 q 591 714 591 785 q 556 583 591 650 q 522 534 544 560 q 486 498 500 509 q 420 448 474 488 q 388 420 406 437 q 360 355 360 391 l 361 300 l 361 189 l 360 189 l 352 188 l 308 188 l 307 189 l 307 354 q 374 480 307 427 q 440 530 395 497 q 473 558 453 539 q 506 603 495 583 q 536 712 536 659 l 536 715 q 491 850 536 788 q 466 876 484 859 q 395 917 430 907 q 344 925 368 925 l 336 925 q 233 890 283 925 q 201 863 220 883 q 159 796 174 833 q 144 715 144 755 l 144 691 l 143 690 l 91 690 l 90 691 l 90 718 q 122 844 90 782 q 160 898 134 867 q 195 930 185 924 q 340 979 262 979 z "},"@":{"ha":1312,"x_min":109,"x_max":1224,"o":"m 452 416 q 499 274 452 336 q 520 252 505 267 q 580 220 551 227 q 615 215 598 215 l 620 215 q 722 254 671 215 q 755 288 746 275 q 779 326 771 310 q 809 445 809 385 l 809 452 q 777 570 809 514 q 751 603 767 585 q 645 650 704 650 l 643 650 q 526 598 581 650 q 497 563 506 576 q 476 525 485 545 q 452 416 452 471 m 681 993 l 692 993 q 905 949 798 993 q 991 903 947 932 q 1051 858 1017 886 q 1101 808 1080 831 q 1152 737 1137 764 q 1194 650 1174 701 q 1224 471 1224 564 q 1188 277 1224 375 q 1153 208 1175 241 q 1078 135 1122 163 q 1035 114 1058 122 q 974 105 1003 105 l 966 105 q 854 148 903 105 q 830 177 835 167 q 801 259 806 213 l 800 259 q 769 224 791 246 q 732 195 745 203 q 618 161 677 161 q 481 215 542 161 q 452 248 458 237 q 399 416 399 321 q 439 570 399 497 q 463 607 448 587 q 491 638 471 618 q 538 673 517 662 q 640 703 590 703 l 648 703 q 745 675 696 703 q 786 644 761 667 q 820 602 810 618 q 844 551 835 577 l 845 550 q 873 627 857 585 l 873 628 l 923 609 l 923 608 q 877 470 900 550 q 851 311 851 374 l 851 303 q 893 185 851 222 q 969 158 925 158 l 970 158 q 1055 183 1019 158 q 1080 204 1065 190 q 1103 230 1096 219 q 1126 269 1118 252 q 1151 334 1138 292 q 1171 467 1171 404 l 1171 475 q 1113 698 1171 592 q 885 899 1036 833 q 686 939 789 939 l 685 939 q 408 859 538 939 q 347 816 379 842 q 302 772 332 804 q 252 711 271 739 q 218 652 230 677 q 162 422 162 542 l 162 420 q 245 143 162 273 q 288 85 261 117 q 343 31 319 52 q 397 -9 374 5 q 467 -47 432 -32 q 679 -94 570 -94 l 683 -94 q 926 -32 809 -94 q 951 -79 950 -77 l 951 -79 q 857 -119 911 -101 q 687 -147 770 -147 l 675 -147 q 463 -104 570 -147 q 376 -60 415 -84 q 157 191 229 34 q 109 415 109 302 l 109 427 q 150 633 109 529 q 353 888 214 789 q 416 926 385 909 q 503 963 452 945 q 681 993 593 993 z "},"A":{"ha":838,"x_min":24,"x_max":819,"o":"m 387 993 l 456 993 q 505 859 459 989 l 819 1 l 819 0 l 763 0 q 741 59 759 5 l 670 252 l 173 252 q 130 138 172 252 l 80 0 l 24 0 l 24 1 l 357 913 q 387 993 384 988 m 420 932 l 192 306 l 650 306 l 421 932 l 420 932 z "},"B":{"ha":740,"x_min":117,"x_max":680,"o":"m 119 992 l 403 992 q 602 903 526 992 q 650 762 650 842 l 650 740 q 527 525 650 603 q 579 498 549 518 q 669 378 644 454 q 680 310 680 343 l 680 252 q 608 74 680 151 q 426 0 530 0 l 119 0 l 117 2 l 117 990 l 119 992 m 170 939 l 170 547 l 401 547 q 565 633 503 547 q 596 747 596 678 l 596 755 q 471 929 596 886 q 398 939 435 939 l 170 939 m 170 493 l 170 54 l 420 54 q 604 159 545 54 q 627 258 627 204 l 627 304 q 507 476 627 425 q 404 493 463 493 l 170 493 z "},"C":{"ha":916,"x_min":66,"x_max":871,"o":"m 496 993 l 499 993 q 804 844 671 993 q 870 743 857 778 l 870 741 l 823 720 l 823 720 q 786 781 823 724 q 496 939 665 939 q 218 795 338 939 q 119 496 119 663 q 238 174 119 312 q 321 105 288 122 q 487 54 406 54 l 507 54 q 703 126 606 54 q 783 207 751 165 q 824 276 806 241 l 825 276 l 871 254 l 871 253 q 823 172 864 231 q 696 57 758 91 q 496 0 602 0 q 207 129 335 0 q 102 295 136 207 q 66 493 66 394 l 66 500 q 200 857 66 703 q 496 993 330 993 z "},"D":{"ha":860,"x_min":117,"x_max":797,"o":"m 170 939 l 170 54 l 343 54 q 597 156 478 54 q 674 250 654 213 q 743 496 743 366 q 614 821 743 682 q 331 939 494 939 l 170 939 m 119 993 l 338 993 q 652 858 513 993 q 797 496 797 704 q 688 177 797 321 q 598 88 640 118 q 515 39 551 56 q 418 9 439 9 q 311 0 386 0 l 119 0 l 117 2 l 117 991 l 119 993 z "},"E":{"ha":654,"x_min":117,"x_max":581,"o":"m 117 993 l 581 993 l 581 992 l 581 940 l 581 939 l 170 939 l 170 523 l 503 523 l 503 470 l 170 470 l 170 54 l 581 54 l 581 53 l 581 1 l 581 0 l 117 0 l 117 1 l 117 992 l 117 993 z "},"F":{"ha":614,"x_min":117,"x_max":581,"o":"m 117 993 l 581 993 l 581 992 l 581 940 l 581 939 l 170 939 l 170 523 l 517 523 l 517 470 l 170 470 l 170 1 l 170 0 l 117 0 l 117 1 l 117 992 l 117 993 z "},"G":{"ha":1013,"x_min":62,"x_max":939,"o":"m 498 993 l 501 993 q 807 852 674 993 q 886 734 857 794 l 886 732 q 837 709 842 709 q 753 831 817 762 q 498 939 640 939 q 217 798 339 939 q 115 496 115 664 q 237 173 115 313 q 344 92 303 108 q 411 66 364 79 q 490 54 455 54 l 510 54 q 707 123 608 54 q 802 220 759 161 q 874 394 857 302 q 882 441 877 401 l 586 441 l 584 443 l 584 494 l 585 494 l 939 494 l 939 494 q 851 198 939 338 q 619 18 766 69 q 500 0 559 0 q 202 132 333 0 q 62 496 62 286 l 62 500 q 203 863 62 706 q 498 993 334 993 z "},"H":{"ha":827,"x_min":117,"x_max":711,"o":"m 119 993 l 168 993 l 170 991 l 170 523 l 657 523 l 657 991 l 659 993 l 709 993 l 711 991 l 711 2 l 709 0 l 659 0 l 657 2 l 657 470 l 170 470 l 170 2 l 168 0 l 119 0 l 117 2 l 117 991 l 119 993 z "},"I":{"ha":287,"x_min":117,"x_max":170,"o":"m 170 993 l 170 1 l 170 0 l 117 0 l 117 1 l 117 993 l 170 993 z "},"J":{"ha":659,"x_min":5,"x_max":545,"o":"m 492 993 l 544 993 l 545 992 l 545 286 q 471 81 545 170 q 439 52 448 58 q 346 5 397 16 q 308 0 323 0 l 242 0 q 144 28 195 0 q 24 172 64 75 q 5 278 5 227 l 5 334 l 5 335 l 58 335 l 58 334 l 58 281 q 102 139 58 206 q 200 61 142 81 q 245 54 224 54 l 305 54 q 395 85 349 54 q 426 112 406 92 l 437 126 q 462 163 454 148 q 479 207 471 181 q 491 290 491 242 l 491 992 l 492 993 z "},"K":{"ha":777,"x_min":117,"x_max":745,"o":"m 119 993 l 168 993 l 170 991 l 170 414 l 676 993 l 745 993 l 745 992 l 343 531 q 331 515 331 517 l 745 3 l 745 1 l 676 1 q 313 453 645 37 l 294 475 l 170 332 l 170 2 l 168 0 l 119 0 l 117 2 l 117 991 l 119 993 z "},"L":{"ha":620,"x_min":117,"x_max":608,"o":"m 117 993 l 170 993 l 170 992 l 170 54 l 607 54 l 608 53 l 608 1 l 607 0 l 117 0 l 117 1 l 117 992 l 117 993 z "},"M":{"ha":1129,"x_min":117,"x_max":1013,"o":"m 119 993 l 208 993 q 237 920 210 993 l 565 66 l 566 66 l 878 878 l 922 992 l 923 993 l 1011 993 l 1013 991 l 1013 2 l 1011 0 l 960 0 l 957 3 l 957 932 l 956 932 l 605 21 q 596 0 598 0 l 535 0 q 467 177 532 4 l 179 923 l 174 935 l 174 935 l 174 2 l 172 0 l 122 0 q 117 3 117 0 l 117 991 l 119 993 z "},"N":{"ha":921,"x_min":117,"x_max":804,"o":"m 119 993 l 201 993 q 260 895 208 985 l 750 56 l 751 56 l 751 991 l 753 993 l 802 993 l 804 991 l 804 2 l 802 0 l 722 0 q 683 65 718 3 l 174 937 l 172 937 l 172 2 l 171 0 l 122 0 q 117 3 117 0 l 117 991 l 119 993 z "},"O":{"ha":1004,"x_min":67,"x_max":943,"o":"m 504 993 l 509 993 q 811 853 677 993 q 876 763 855 801 q 943 508 943 636 l 943 488 q 852 192 943 332 q 785 113 833 163 l 745 81 q 505 0 634 0 q 208 132 338 0 q 67 496 67 286 l 67 500 q 208 863 67 706 q 504 993 340 993 m 121 496 q 242 173 121 313 q 349 92 309 108 q 416 66 370 79 q 495 54 460 54 l 515 54 q 735 140 627 54 q 811 227 793 197 q 890 493 890 351 l 890 500 q 781 806 890 670 q 504 939 662 939 q 222 798 345 939 q 121 496 121 664 z "},"P":{"ha":754,"x_min":117,"x_max":713,"o":"m 119 993 l 409 993 q 637 887 540 993 q 713 689 713 793 l 713 669 q 630 463 713 560 q 404 366 536 366 l 170 366 l 170 2 l 168 0 l 119 0 l 117 2 l 117 991 l 119 993 m 170 939 l 170 419 l 397 419 q 637 570 562 419 q 659 674 659 625 l 659 685 q 587 862 659 783 q 403 939 511 939 l 170 939 z "},"Q":{"ha":1023,"x_min":67,"x_max":962,"o":"m 121 496 q 242 174 121 313 q 349 93 309 109 q 416 66 370 80 q 495 54 460 54 l 515 54 q 737 143 629 54 l 760 165 l 631 302 l 669 338 l 796 206 q 890 493 890 336 l 890 500 q 781 806 890 670 q 504 939 662 939 q 222 798 345 939 q 121 496 121 665 m 504 993 l 509 993 q 811 853 676 993 q 876 763 854 801 q 943 508 943 636 l 943 488 q 840 176 943 321 l 833 168 l 833 166 l 962 30 q 924 -7 940 7 q 798 126 798 124 q 505 0 668 0 q 208 133 338 0 q 67 496 67 287 l 67 500 q 208 863 67 707 q 504 993 340 993 z "},"R":{"ha":745,"x_min":117,"x_max":713,"o":"m 119 993 l 409 993 q 637 887 540 993 q 713 689 713 793 l 713 669 q 645 481 713 572 q 490 378 584 406 l 705 2 l 704 1 l 642 1 q 595 84 640 2 l 435 367 l 403 366 l 170 366 l 170 2 l 168 0 l 119 0 l 117 2 l 117 991 l 119 993 m 170 939 l 170 419 l 397 419 q 637 570 562 419 q 659 674 659 625 l 659 685 q 587 863 659 783 q 403 939 511 939 l 170 939 z "},"S":{"ha":694,"x_min":48,"x_max":644,"o":"m 354 1007 l 362 1007 q 521 958 447 1007 q 562 924 538 947 q 595 886 589 897 q 623 842 615 859 l 574 819 q 541 868 564 842 q 507 902 524 889 q 359 954 442 954 l 357 954 q 207 905 271 954 q 170 867 184 886 q 127 738 127 808 q 169 629 127 669 q 210 597 191 608 q 329 548 249 573 q 454 515 378 533 q 509 494 486 506 q 564 457 534 481 q 593 426 587 434 q 618 385 608 407 q 644 273 644 330 l 644 264 q 610 130 644 197 q 476 12 566 50 q 351 -14 416 -14 q 158 53 245 -14 q 122 85 145 63 q 80 140 93 119 q 55 184 68 157 l 48 201 q 98 222 96 222 q 131 160 111 191 q 166 117 142 142 q 201 87 189 95 q 351 40 270 40 q 499 85 431 40 q 533 115 512 94 q 579 195 566 152 q 591 269 591 231 l 591 270 q 541 404 591 347 q 510 431 519 426 q 476 450 494 442 q 435 465 460 458 q 212 535 286 499 q 159 566 185 548 q 73 736 73 629 l 73 741 q 121 892 73 821 q 145 922 131 905 q 179 951 169 945 q 214 973 195 963 q 269 996 241 987 q 354 1007 313 1007 z "},"T":{"ha":636,"x_min":10,"x_max":626,"o":"m 11 993 l 625 993 l 626 992 l 626 940 l 345 940 l 345 1 l 344 0 l 292 0 l 292 940 l 10 940 l 10 992 l 11 993 z "},"U":{"ha":887,"x_min":115,"x_max":772,"o":"m 117 993 l 167 993 l 169 991 l 169 359 q 295 83 169 163 q 350 60 319 68 q 426 54 376 54 l 460 54 q 575 74 541 54 q 694 210 652 108 q 718 344 718 274 l 718 991 l 720 993 l 770 993 l 772 991 l 772 381 q 739 177 772 246 q 701 112 725 142 q 479 0 619 0 l 408 0 q 152 169 235 0 q 115 347 115 251 l 115 991 l 117 993 z "},"V":{"ha":845,"x_min":23,"x_max":822,"o":"m 23 993 l 80 993 q 115 901 83 990 q 335 298 330 316 l 422 61 l 423 61 l 764 992 l 764 993 l 822 993 q 546 240 818 978 l 458 1 l 457 0 l 389 0 q 367 58 387 0 l 56 901 q 23 993 25 984 z "},"W":{"ha":1208,"x_min":41,"x_max":1166,"o":"m 98 993 q 113 932 100 993 l 313 96 l 313 96 l 570 951 q 583 993 581 991 l 623 993 q 642 938 627 992 q 894 97 736 628 l 896 97 l 1109 992 l 1109 993 l 1164 993 l 1166 991 l 928 7 q 926 0 928 0 l 869 0 q 851 57 865 7 q 666 673 768 331 l 604 878 l 603 878 l 342 6 q 338 0 340 0 l 282 0 q 256 102 279 0 l 41 992 l 42 993 l 98 993 z "},"X":{"ha":756,"x_min":33,"x_max":723,"o":"m 35 993 l 98 993 q 255 739 104 985 q 378 538 374 547 l 379 538 l 659 993 l 722 993 l 722 991 l 416 497 l 723 1 l 722 0 l 660 0 q 603 91 654 5 l 378 456 l 96 0 l 33 0 l 33 1 l 340 498 l 35 990 l 35 993 z "},"Y":{"ha":726,"x_min":20,"x_max":708,"o":"m 20 993 l 83 993 q 363 538 89 988 l 366 538 l 644 993 l 708 993 l 708 992 l 391 479 l 391 2 l 389 0 l 337 0 l 335 2 l 335 484 l 20 991 l 20 993 z "},"Z":{"ha":757,"x_min":40,"x_max":728,"o":"m 66 993 l 728 993 l 728 991 l 153 81 l 136 54 l 701 54 l 702 52 l 702 2 l 701 0 l 40 0 l 40 1 l 540 792 l 632 939 l 66 939 l 64 941 l 64 991 l 66 993 z "},"[":{"ha":510,"x_min":129,"x_max":361,"o":"m 130 1027 l 361 1027 l 361 973 l 182 973 l 182 -62 l 361 -62 l 361 -115 l 130 -115 l 129 -115 l 129 1026 l 130 1027 z "},"\\":{"ha":416,"x_min":1,"x_max":400,"o":"m 54 928 l 400 -33 l 399 -34 l 347 -34 l 347 -33 l 1 928 l 1 928 l 54 928 l 54 928 z "},"]":{"ha":496,"x_min":149,"x_max":381,"o":"m 380 -115 l 149 -115 l 149 -62 l 328 -62 l 328 973 l 149 973 l 149 1027 l 380 1027 l 381 1026 l 381 -115 l 380 -115 z "},"^":{"ha":707,"x_min":102,"x_max":605,"o":"m 324 948 l 382 948 q 503 752 384 947 q 605 587 604 588 q 559 559 562 559 l 402 814 l 353 893 l 202 647 l 147 559 q 102 587 104 585 l 256 838 q 324 948 323 947 z "},"_":{"ha":739,"x_min":47,"x_max":692,"o":"m 47 -55 l 691 -55 l 692 -56 l 692 -108 l 691 -109 l 47 -109 l 47 -55 z "},"`":{"ha":477,"x_min":164,"x_max":393,"o":"m 192 1244 l 393 1120 l 393 1120 l 365 1075 l 164 1199 l 164 1200 l 192 1244 z "},"a":{"ha":757,"x_min":62,"x_max":655,"o":"m 357 644 l 361 644 q 593 520 497 644 l 602 506 l 603 506 l 603 636 l 605 638 l 654 638 l 655 636 l 655 8 l 654 6 l 605 6 l 603 8 l 603 138 l 602 138 q 446 14 549 52 q 357 0 404 0 q 127 119 224 0 q 62 321 62 211 l 62 323 q 155 556 62 456 q 357 644 244 644 m 115 323 q 218 102 115 190 q 359 52 284 52 q 536 138 460 52 q 603 323 603 218 q 534 510 603 428 q 358 592 458 592 q 163 485 244 592 q 115 323 115 408 z "},"b":{"ha":772,"x_min":104,"x_max":708,"o":"m 157 321 q 227 132 157 216 q 407 48 304 48 q 599 149 519 48 q 654 323 654 227 q 550 547 654 457 q 406 597 481 597 q 214 497 294 597 q 157 321 157 419 m 106 993 l 155 993 l 157 991 l 157 510 l 158 510 q 315 636 211 597 q 407 651 360 651 q 629 545 534 651 q 708 328 708 446 l 708 318 q 608 77 708 183 q 411 -5 515 -5 l 403 -5 q 172 113 270 -5 l 158 136 l 157 136 l 157 1 l 155 0 l 106 0 l 104 1 l 104 991 l 106 993 z "},"c":{"ha":648,"x_min":61,"x_max":604,"o":"m 356 644 l 359 644 q 580 536 486 644 l 602 504 q 558 477 562 477 q 357 592 478 592 q 162 485 243 592 q 113 323 113 408 q 216 102 113 190 q 357 52 283 52 q 556 165 475 52 q 560 171 559 169 q 604 142 602 146 q 443 13 549 52 q 356 0 399 0 q 144 98 236 0 q 61 321 61 195 l 61 323 q 153 556 61 456 q 356 644 243 644 z "},"d":{"ha":772,"x_min":65,"x_max":669,"o":"m 618 993 l 667 993 l 669 991 l 669 1 l 667 0 l 618 0 l 616 1 l 616 135 q 453 8 556 43 q 372 -5 411 -5 l 361 -5 q 149 94 245 -5 q 65 319 65 195 l 65 324 q 180 581 65 475 q 368 651 266 651 q 605 526 507 651 l 615 510 l 616 510 l 616 991 l 618 993 m 119 321 q 189 132 119 216 q 368 48 265 48 q 559 149 480 48 q 616 323 616 227 q 511 547 616 457 q 367 597 443 597 q 175 497 256 597 q 119 321 119 418 z "},"e":{"ha":694,"x_min":45,"x_max":639,"o":"m 102 372 l 581 372 q 554 454 580 396 q 416 578 504 547 q 340 591 380 591 q 156 496 234 591 q 102 372 117 448 m 340 644 l 343 644 q 556 545 464 644 q 639 321 639 446 l 637 319 l 98 319 q 187 113 98 200 q 342 52 258 52 q 532 154 454 52 q 566 216 554 186 l 567 220 q 616 202 616 205 q 578 126 602 163 q 340 0 482 0 q 111 119 207 0 q 45 321 45 211 l 45 323 q 138 555 45 456 q 340 644 227 644 z "},"f":{"ha":376,"x_min":18,"x_max":395,"o":"m 376 993 l 395 993 l 395 992 l 395 940 l 395 939 l 380 939 q 254 874 302 939 q 201 671 201 803 l 201 644 l 395 644 l 395 644 l 395 591 l 395 591 l 201 591 l 201 1 l 201 0 l 149 0 l 148 1 l 148 591 l 19 591 l 18 591 l 18 644 l 19 644 l 148 644 l 148 676 q 217 915 148 827 q 251 949 235 937 q 336 988 286 977 q 376 993 357 993 z "},"g":{"ha":691,"x_min":65,"x_max":612,"o":"m 136 420 l 136 414 q 164 323 136 368 q 191 291 172 311 q 253 254 220 265 q 313 243 283 243 l 316 243 q 429 282 377 243 q 459 313 451 302 q 494 417 494 360 q 461 517 494 471 q 418 559 442 543 q 315 591 370 591 l 314 591 q 197 548 250 591 q 171 520 176 528 q 152 488 159 504 q 136 420 136 453 m 227 47 q 119 -91 119 -16 l 119 -92 q 155 -175 119 -136 q 184 -199 174 -193 q 338 -239 245 -239 q 499 -191 433 -239 q 523 -169 508 -184 q 553 -118 544 -146 q 559 -84 559 -99 l 559 -81 q 531 -11 559 -43 q 508 9 516 4 q 469 27 491 20 q 431 37 438 37 q 378 41 401 41 l 313 41 q 227 47 267 41 m 311 644 l 318 644 q 444 606 384 644 q 470 587 458 596 l 471 587 q 528 637 486 621 q 570 644 550 644 l 588 644 l 589 644 l 589 591 l 588 591 l 572 591 q 519 566 537 591 q 512 538 512 549 q 547 418 547 481 l 547 415 q 496 274 547 338 q 463 241 481 257 q 425 216 441 224 q 319 189 372 189 l 311 189 q 197 220 254 189 q 166 158 166 194 q 182 120 166 132 q 321 94 212 94 l 370 95 q 568 28 502 95 l 578 17 q 610 -54 604 -18 q 612 -78 612 -66 l 612 -87 q 588 -170 612 -126 q 458 -273 547 -239 q 343 -292 402 -292 l 334 -292 q 153 -243 231 -292 q 75 -146 98 -206 q 65 -94 65 -118 l 65 -88 q 113 26 65 -31 q 141 53 135 50 q 163 68 149 59 q 113 158 113 97 l 113 159 q 153 253 113 212 q 136 271 144 262 q 83 417 83 336 q 136 562 83 497 q 167 592 152 581 q 199 614 184 606 q 311 644 254 644 z "},"h":{"ha":717,"x_min":104,"x_max":616,"o":"m 106 993 l 155 993 l 157 991 l 157 561 q 341 645 227 645 l 379 645 q 593 531 529 645 q 616 427 616 484 l 616 2 l 614 0 l 565 0 l 563 2 l 563 420 q 465 576 563 538 q 372 591 427 591 l 348 591 q 172 500 215 591 q 157 421 157 467 l 157 2 l 155 0 l 106 0 l 104 2 l 104 991 l 106 993 z "},"i":{"ha":267,"x_min":90,"x_max":176,"o":"m 160 644 l 160 1 l 159 0 l 107 0 l 106 1 l 106 644 l 160 644 m 131 993 l 136 993 q 166 979 152 993 q 176 953 176 965 l 176 946 q 161 916 176 930 q 134 906 149 906 q 96 928 110 906 q 90 947 90 938 l 90 951 q 108 985 90 970 q 131 993 120 993 z "},"j":{"ha":311,"x_min":-29,"x_max":220,"o":"m 151 644 l 203 644 l 203 644 l 203 37 q 180 -130 203 -66 q 164 -168 174 -150 q 138 -209 154 -189 q 115 -235 134 -216 q 75 -266 93 -256 q -26 -292 26 -292 l -28 -292 l -29 -292 l -29 -239 q -28 -239 -29 -239 q 96 -176 47 -239 q 117 -143 110 -157 q 150 20 150 -74 l 150 644 l 151 644 m 174 993 l 179 993 q 210 979 195 993 q 220 953 220 965 l 220 946 q 205 916 220 930 q 177 906 193 906 q 139 928 153 906 q 134 947 134 938 l 134 951 q 151 985 134 970 q 174 993 163 993 z "},"k":{"ha":606,"x_min":104,"x_max":579,"o":"m 106 993 l 155 993 l 157 991 l 157 322 l 498 645 l 575 645 l 575 644 l 288 371 l 288 370 l 579 2 l 579 0 l 511 0 q 413 124 506 3 q 250 334 264 313 l 248 334 l 157 247 l 157 2 l 155 0 l 106 0 l 104 2 l 104 991 l 106 993 z "},"l":{"ha":260,"x_min":104,"x_max":157,"o":"m 104 993 l 157 993 l 157 992 l 157 1 l 157 0 l 104 0 l 104 1 l 104 992 l 104 993 z "},"m":{"ha":1175,"x_min":104,"x_max":1075,"o":"m 337 644 l 382 644 q 582 549 513 644 l 588 538 l 590 538 q 705 630 621 599 q 796 644 749 644 l 841 644 q 1036 556 967 644 q 1075 425 1075 503 l 1075 2 l 1073 0 l 1023 0 l 1021 2 l 1021 417 q 929 574 1021 535 q 833 591 887 591 l 804 591 q 628 495 671 591 q 616 422 616 464 l 616 2 l 614 0 l 564 0 l 563 2 l 563 420 q 450 581 563 547 q 374 591 417 591 l 345 591 q 171 498 214 591 q 157 420 157 468 l 157 2 l 155 0 l 106 0 l 104 2 l 104 633 l 106 635 l 155 635 l 157 633 l 157 561 q 337 644 227 644 z "},"n":{"ha":716,"x_min":104,"x_max":616,"o":"m 337 644 l 382 644 q 581 550 513 644 q 616 427 616 498 l 616 2 l 614 0 l 564 0 l 563 2 l 563 420 q 450 581 563 547 q 374 591 417 591 l 345 591 q 171 498 214 591 q 157 420 157 468 l 157 2 l 155 0 l 106 0 l 104 2 l 104 633 l 106 635 l 155 635 l 157 633 l 157 561 q 337 644 227 644 z "},"o":{"ha":715,"x_min":61,"x_max":654,"o":"m 356 644 l 359 644 q 587 528 492 644 q 654 327 654 433 l 654 317 q 559 86 654 188 q 356 0 472 0 q 126 119 222 0 q 61 321 61 211 l 61 323 q 153 556 61 456 q 356 644 243 644 m 113 323 q 216 102 113 190 q 357 52 283 52 q 535 138 459 52 q 602 323 602 218 q 532 510 602 428 q 357 592 457 592 q 162 485 243 592 q 113 323 113 408 z "},"p":{"ha":768,"x_min":104,"x_max":703,"o":"m 401 644 l 406 644 q 635 526 539 644 q 703 323 703 431 l 703 313 q 608 80 703 182 q 401 -7 519 -7 q 169 115 267 -7 l 157 133 l 157 133 l 157 -290 l 155 -292 l 106 -292 l 104 -290 l 104 627 l 106 629 l 155 629 l 157 627 l 157 504 l 157 504 q 313 629 211 592 q 401 644 355 644 m 157 319 q 260 96 157 185 q 404 45 328 45 q 583 132 507 45 q 650 319 650 213 q 581 509 650 425 q 403 591 505 591 q 206 483 288 591 q 157 319 157 406 z "},"q":{"ha":768,"x_min":65,"x_max":665,"o":"m 367 644 q 455 629 413 644 q 611 504 557 592 l 612 504 l 612 627 l 614 629 l 663 629 l 665 627 l 665 -290 l 663 -292 l 614 -292 l 612 -290 l 612 133 l 611 133 l 600 115 q 367 -7 502 -7 q 160 80 249 -7 q 65 313 65 182 l 65 323 q 133 526 65 431 q 363 644 229 644 l 367 644 m 612 319 q 562 483 612 406 q 366 591 481 591 q 188 509 264 591 q 118 319 118 425 q 185 132 118 213 q 365 45 262 45 q 508 96 440 45 q 612 319 612 185 z "},"r":{"ha":484,"x_min":104,"x_max":460,"o":"m 350 649 q 460 619 414 649 q 446 557 448 557 q 345 589 393 589 l 339 589 q 220 551 277 589 q 181 503 188 522 q 157 413 157 458 l 157 2 l 155 0 l 106 0 l 104 2 l 104 634 l 106 635 l 155 635 l 157 634 l 157 562 l 158 562 q 188 592 158 566 q 350 649 257 649 z "},"s":{"ha":566,"x_min":55,"x_max":510,"o":"m 290 656 l 292 656 q 456 593 387 656 q 485 559 478 571 q 492 547 491 551 l 445 522 q 389 577 426 553 q 291 603 345 603 q 168 564 216 603 q 146 538 149 546 q 126 479 126 509 l 126 474 q 168 406 126 431 q 229 378 189 392 q 362 347 280 362 q 414 328 394 338 q 450 305 431 319 q 477 278 467 291 q 510 181 510 234 q 469 69 510 121 q 443 44 452 50 q 404 20 420 27 q 286 -7 348 -7 q 132 41 201 -7 q 99 70 120 50 l 90 79 q 62 120 71 104 q 55 133 58 127 q 102 157 80 146 q 208 61 138 88 q 286 47 246 47 q 398 78 347 47 q 449 141 433 100 q 456 179 456 161 l 456 183 q 423 258 456 224 q 365 290 398 279 q 298 304 350 294 q 157 351 197 328 q 73 477 73 393 q 117 589 73 538 q 146 614 136 608 q 290 656 206 656 z "},"t":{"ha":448,"x_min":22,"x_max":404,"o":"m 149 993 l 201 993 l 201 992 l 201 644 l 392 644 l 393 644 l 393 591 l 392 591 l 201 591 l 201 170 q 225 88 201 121 q 245 70 236 75 q 293 53 270 53 l 296 53 q 374 75 325 53 q 381 78 380 78 l 404 30 q 351 9 388 21 q 298 0 319 0 l 290 0 q 219 22 256 0 q 192 45 210 28 q 161 96 171 68 q 149 167 149 132 l 149 591 l 23 591 l 22 591 l 22 644 l 23 644 l 149 644 l 149 993 z "},"u":{"ha":715,"x_min":100,"x_max":612,"o":"m 102 644 l 152 644 l 154 642 l 154 222 q 263 64 154 100 q 335 54 298 54 l 378 54 q 543 138 494 54 q 559 224 559 174 l 559 642 l 561 644 l 611 644 l 612 642 l 612 11 l 611 9 l 561 9 l 559 11 l 559 83 q 384 0 489 0 l 330 0 q 147 77 218 0 q 100 216 100 134 l 100 642 l 102 644 z "},"v":{"ha":644,"x_min":23,"x_max":621,"o":"m 23 644 l 81 644 q 104 590 83 644 l 321 60 l 323 60 l 562 644 l 621 644 l 621 644 l 364 20 l 355 0 l 290 0 q 224 157 286 3 q 23 644 46 585 l 23 644 z "},"w":{"ha":945,"x_min":36,"x_max":910,"o":"m 93 644 q 117 570 96 642 l 275 60 q 313 180 277 63 l 459 644 l 486 644 q 503 595 490 644 l 671 60 q 709 181 673 63 l 852 644 l 854 644 l 909 644 l 910 642 l 708 0 l 635 0 q 614 61 633 0 l 474 512 q 451 440 471 510 l 313 1 l 313 0 l 239 0 q 205 108 237 0 l 36 644 l 37 644 l 93 644 z "},"x":{"ha":642,"x_min":28,"x_max":612,"o":"m 110 644 l 320 369 l 321 369 l 530 644 l 598 644 l 598 644 l 358 330 l 612 2 l 612 0 l 544 0 l 320 293 l 319 293 l 96 0 l 30 0 l 28 2 l 281 330 l 41 644 l 42 644 l 110 644 z "},"y":{"ha":640,"x_min":23,"x_max":616,"o":"m 23 644 l 81 644 q 96 610 83 644 l 319 60 l 319 60 l 559 644 l 614 644 l 615 644 l 616 644 l 233 -291 l 232 -292 l 175 -292 l 175 -292 l 290 -10 l 23 644 l 23 644 z "},"z":{"ha":631,"x_min":60,"x_max":576,"o":"m 80 644 l 574 644 l 576 642 q 163 54 563 626 l 559 54 l 562 52 l 562 2 l 559 0 l 60 0 l 60 1 l 473 591 l 80 591 l 78 593 l 78 642 l 80 644 z "},"{":{"ha":536,"x_min":106,"x_max":411,"o":"m 381 1040 l 411 1040 l 411 988 l 410 987 l 376 987 q 267 943 305 987 q 244 867 244 914 l 244 537 q 190 434 244 484 l 183 428 q 241 345 222 402 q 244 321 244 332 l 244 -9 q 323 -123 244 -98 q 375 -130 352 -130 l 410 -130 l 411 -132 l 411 -181 q 408 -183 411 -183 l 378 -184 q 222 -116 279 -184 q 191 -14 191 -71 l 191 316 q 136 396 191 361 q 106 411 106 410 l 106 446 l 136 460 q 187 519 172 481 q 191 539 191 532 l 191 871 q 269 1014 191 967 q 381 1040 317 1040 z "},"|":{"ha":257,"x_min":102,"x_max":155,"o":"m 102 -1 l 102 948 l 102 949 l 155 949 l 155 948 l 155 -1 l 102 -1 z "},"}":{"ha":536,"x_min":125,"x_max":430,"o":"m 155 1040 q 267 1014 219 1040 q 345 871 345 967 l 345 539 q 349 519 345 532 q 399 460 364 481 l 430 446 l 430 411 q 399 396 430 410 q 345 316 345 361 l 345 -14 q 313 -116 345 -71 q 157 -184 257 -184 l 127 -183 q 125 -181 125 -183 l 125 -132 l 126 -130 l 161 -130 q 212 -123 184 -130 q 292 -9 292 -98 l 292 321 q 295 345 292 332 q 353 428 313 402 l 346 434 q 292 537 292 484 l 292 867 q 269 943 292 914 q 159 987 231 987 l 125 987 l 125 988 l 125 1040 l 155 1040 z "},"~":{"ha":328,"x_min":41,"x_max":290,"o":"m 290 326 q 263 304 277 311 q 224 293 243 293 q 165 314 204 293 q 105 335 125 335 q 69 323 88 335 q 41 296 57 315 l 41 356 q 67 378 54 372 q 105 390 87 390 q 166 369 127 390 q 224 347 206 347 q 261 359 242 347 q 290 386 273 368 l 290 326 z "},"¡":{"ha":391,"x_min":180,"x_max":261,"o":"m 254 0 l 188 0 l 187 1 l 194 796 l 195 797 l 247 797 l 248 796 l 254 1 l 254 0 m 221 873 l 220 873 q 185 895 197 873 q 180 913 180 903 q 197 946 180 933 q 220 954 208 954 l 222 954 q 252 939 239 954 q 261 916 261 927 l 261 911 q 242 879 261 892 q 221 873 231 873 z "},"¢":{"ha":648,"x_min":61,"x_max":604,"o":"m 306 789 l 306 876 l 359 876 l 359 794 q 580 686 486 794 l 602 654 q 558 627 562 627 q 359 742 479 741 l 359 202 q 556 315 476 203 q 560 321 559 319 q 604 292 602 296 q 443 163 549 201 q 359 150 401 151 l 359 71 l 359 71 l 307 71 l 306 71 l 306 155 q 144 248 216 171 q 61 471 61 345 l 61 473 q 153 706 61 606 q 306 789 222 774 m 306 208 l 306 736 q 162 635 224 718 q 113 473 113 558 q 216 252 113 340 q 306 208 259 220 z "},"£":{"ha":795,"x_min":36,"x_max":728,"o":"m 439 906 q 585 860 515 906 q 614 836 598 851 l 576 798 q 534 827 552 819 q 439 852 488 852 q 304 799 367 852 q 259 692 259 758 l 259 688 q 298 554 259 629 q 326 492 315 517 l 562 492 l 562 492 l 562 439 l 562 439 l 340 439 q 343 405 343 420 q 250 197 343 309 q 197 138 234 176 l 197 138 q 260 144 229 144 q 399 88 341 144 q 518 37 459 37 q 689 132 599 37 l 728 95 q 517 -17 623 -17 q 351 60 432 -17 q 259 92 312 92 q 83 30 182 92 l 69 20 l 68 20 l 36 62 q 133 149 77 96 q 201 221 186 203 q 290 403 290 326 l 290 407 q 286 439 290 420 l 113 439 l 113 439 l 113 492 l 113 492 l 267 492 q 237 556 261 506 q 205 686 205 627 l 205 695 q 235 800 205 751 q 256 827 242 812 q 292 858 276 847 q 439 906 361 906 z "},"¤":{"ha":878,"x_min":43,"x_max":838,"o":"m 105 502 q 180 291 105 387 q 233 239 210 256 q 279 208 260 218 q 439 167 355 167 l 441 167 q 637 231 547 167 q 679 267 653 242 q 718 314 706 296 q 775 503 775 401 q 711 699 775 609 q 678 737 701 713 q 633 776 651 764 q 440 837 545 837 q 249 777 338 837 q 207 743 232 766 q 172 703 180 715 q 146 664 155 680 q 105 502 105 588 m 81 892 l 179 790 q 228 828 208 814 q 440 890 326 890 q 668 817 564 890 q 701 790 684 804 l 800 892 l 838 854 l 739 751 l 739 751 q 773 703 760 725 q 829 503 829 609 l 829 501 q 761 282 829 384 l 743 259 l 838 161 q 800 123 805 128 l 799 123 l 707 219 q 656 179 679 193 q 597 146 625 158 q 444 113 521 113 l 435 113 q 252 162 342 113 q 194 201 225 176 l 174 219 l 81 123 q 43 161 80 123 l 137 259 q 104 307 117 283 q 52 501 52 398 l 52 504 q 113 712 52 614 q 142 751 123 728 l 43 854 l 81 892 z "},"¥":{"ha":762,"x_min":43,"x_max":722,"o":"m 83 903 l 279 673 q 382 551 279 672 l 541 739 l 680 903 l 682 903 q 722 869 721 869 q 715 861 722 868 l 497 603 l 409 499 l 409 427 l 659 427 l 659 426 l 659 374 l 659 373 l 409 373 l 409 284 l 659 284 l 659 283 l 659 231 l 659 231 l 409 231 l 409 1 l 355 1 l 355 231 l 106 231 l 106 231 l 106 283 l 106 284 l 355 284 l 355 373 l 106 373 l 106 374 l 106 426 l 106 427 l 355 427 l 355 499 l 168 722 q 50 859 155 736 q 43 869 43 868 l 83 903 z "},"¦":{"ha":325,"x_min":136,"x_max":189,"o":"m 136 576 l 136 1017 l 136 1017 l 189 1017 l 189 1017 l 189 576 l 136 576 m 136 -339 l 136 101 l 136 102 l 189 102 l 189 101 l 189 -339 l 136 -339 z "},"§":{"ha":553,"x_min":80,"x_max":477,"o":"m 134 495 l 134 494 q 168 408 134 446 q 198 383 188 389 q 223 371 208 376 q 277 361 250 361 l 281 361 q 378 397 334 361 q 400 421 397 414 q 424 492 424 456 l 424 496 q 380 590 424 549 q 279 628 336 628 q 178 591 222 628 q 134 495 134 549 m 283 970 q 422 915 363 970 q 455 873 446 890 q 463 859 460 864 l 414 836 q 391 870 409 849 q 283 917 347 917 q 200 897 238 917 q 170 873 186 890 q 142 804 142 843 l 142 803 q 193 723 142 752 q 256 695 214 709 q 336 673 292 684 q 379 656 360 666 q 414 632 395 648 q 439 605 437 610 q 456 578 447 596 q 477 494 477 538 q 423 365 477 422 q 380 334 399 344 q 366 326 367 326 l 388 315 q 422 290 404 305 q 468 189 468 247 l 468 181 q 440 96 468 137 q 416 68 435 87 q 382 45 396 51 q 346 29 370 37 q 275 18 309 18 q 123 86 184 18 q 94 130 99 116 q 143 153 136 150 q 168 116 148 140 q 272 72 212 72 l 276 72 q 370 100 328 72 q 398 129 386 112 q 414 184 414 155 l 414 186 q 368 263 414 235 q 323 286 351 275 q 222 315 289 300 q 123 377 163 332 q 84 456 93 414 q 80 491 80 475 l 80 498 q 114 600 80 550 q 139 628 121 610 l 155 642 q 192 663 178 657 q 157 682 176 670 q 89 800 89 729 l 89 807 q 126 905 89 860 q 147 926 141 921 q 180 947 166 941 q 283 970 229 970 z "},"¨":{"ha":612,"x_min":164,"x_max":448,"o":"m 203 1169 l 205 1169 q 240 1147 227 1169 q 245 1128 245 1139 q 228 1096 245 1109 q 205 1088 217 1088 l 203 1088 q 173 1103 186 1088 q 164 1126 164 1115 l 164 1131 q 183 1163 164 1149 q 203 1169 193 1169 m 407 1169 l 408 1169 q 444 1147 431 1169 q 448 1128 448 1139 q 431 1096 448 1109 q 409 1088 420 1088 l 406 1088 q 376 1103 389 1088 q 368 1126 368 1115 l 368 1131 q 387 1163 368 1149 q 407 1169 397 1169 z "},"©":{"ha":1299,"x_min":119,"x_max":1180,"o":"m 173 464 l 173 461 q 255 193 173 317 q 295 143 270 172 q 338 102 327 111 q 382 68 364 79 q 456 26 418 43 q 646 -14 550 -14 l 652 -14 q 902 58 783 -14 q 1097 298 1039 146 q 1126 463 1126 379 q 1048 725 1126 604 q 997 789 1031 751 q 949 833 962 824 q 898 870 920 857 q 648 940 781 940 q 372 850 499 940 q 316 804 350 836 q 267 748 280 768 q 233 695 245 718 q 173 464 173 585 m 650 994 q 959 895 817 994 q 1019 843 984 876 q 1073 782 1059 802 q 1114 720 1095 753 q 1180 463 1180 598 q 1097 176 1180 309 q 1047 111 1078 147 q 993 58 1015 75 q 937 16 960 31 q 864 -23 901 -7 q 656 -68 760 -68 l 642 -68 q 427 -20 535 -68 q 340 31 387 -1 q 279 82 319 45 q 226 143 239 123 q 185 205 199 178 q 145 295 162 246 q 119 456 119 378 l 119 469 q 178 706 119 589 q 229 787 197 743 q 267 831 245 807 q 321 880 303 866 q 393 927 355 906 q 650 994 514 994 m 673 785 l 677 785 q 897 677 803 785 l 920 645 q 876 618 879 618 q 674 733 795 733 q 479 626 560 733 q 431 464 431 549 q 534 243 431 331 q 675 193 600 193 q 873 306 793 193 q 878 312 876 310 q 921 283 919 287 q 760 154 866 193 q 673 141 717 141 q 461 239 553 141 q 378 462 378 336 l 378 465 q 471 697 378 597 q 673 785 560 785 z "},"ª":{"ha":439,"x_min":0,"x_max":0,"o":""},"«":{"ha":752,"x_min":79,"x_max":634,"o":"m 79 330 q 277 459 103 346 l 333 497 l 363 452 q 153 315 357 448 l 138 304 l 363 157 l 363 157 q 333 113 334 114 l 79 279 l 79 330 m 351 330 q 548 459 374 346 l 604 497 l 634 452 q 425 315 628 448 l 410 304 l 634 157 l 634 157 q 604 113 606 114 l 351 279 l 351 330 z "},"¬":{"ha":644,"x_min":102,"x_max":543,"o":"m 489 475 l 102 475 l 102 529 l 542 529 l 543 528 l 543 271 l 489 271 l 489 475 z "},"®":{"ha":780,"x_min":119,"x_max":661,"o":"m 139 722 l 139 720 q 182 580 139 645 q 203 553 191 568 q 227 532 220 536 q 250 513 240 519 q 288 492 269 500 q 388 471 338 471 l 391 471 q 523 509 460 471 q 625 635 595 555 q 641 722 641 677 q 600 859 641 795 q 572 893 591 873 q 547 916 554 911 q 520 936 532 928 q 389 972 459 972 q 243 925 311 972 q 214 901 233 918 q 189 871 195 882 q 171 844 177 856 q 139 722 139 786 m 390 993 q 548 942 476 993 q 579 916 561 933 q 606 885 600 895 q 627 852 618 870 q 661 722 661 791 q 618 575 661 643 q 593 542 609 560 q 566 515 576 524 q 537 493 549 501 q 500 473 518 481 q 393 450 446 450 l 387 450 q 276 475 332 450 q 232 500 256 485 q 201 527 221 508 q 174 558 180 548 q 153 590 159 576 q 132 635 141 611 q 119 718 119 678 l 119 724 q 149 846 119 786 q 175 887 159 865 q 195 910 183 897 q 222 935 213 928 q 259 959 239 948 q 390 993 321 993 m 331 883 l 331 695 l 410 695 q 433 700 420 695 q 480 744 465 713 q 490 789 490 765 l 490 796 q 467 858 490 833 q 454 869 458 866 q 408 883 433 883 l 331 883 m 309 903 l 406 903 q 460 888 434 903 q 475 877 467 884 q 488 863 485 867 q 495 850 492 856 q 509 798 509 826 l 509 788 q 489 722 509 753 q 436 680 469 692 l 494 560 l 512 521 l 489 521 q 484 530 488 521 l 452 600 l 416 675 q 402 675 410 675 l 329 675 l 329 521 l 309 521 l 309 903 z "},"¯":{"ha":454,"x_min":0,"x_max":0,"o":""},"°":{"ha":501,"x_min":67,"x_max":365,"o":"m 212 970 l 219 970 q 309 937 267 970 q 331 915 322 926 q 365 821 365 873 q 319 714 365 760 q 216 672 274 672 q 109 717 155 672 q 79 764 86 743 q 67 818 67 791 l 67 824 q 101 916 67 873 q 127 941 117 935 q 212 970 169 970 m 126 821 l 126 821 q 162 749 126 779 q 214 731 187 731 l 218 731 q 287 766 257 731 q 306 819 306 793 l 306 823 q 276 888 306 859 q 217 911 249 911 l 216 911 q 141 871 171 911 q 126 821 126 848 z "},"±":{"ha":585,"x_min":52,"x_max":533,"o":"m 52 0 l 532 0 l 532 -1 l 532 -53 l 532 -54 l 52 -54 l 52 0 m 266 305 l 52 305 l 52 359 l 266 359 l 266 572 l 267 573 l 319 573 l 319 572 l 319 359 l 532 359 l 533 358 l 533 306 l 532 305 l 319 305 l 319 92 l 266 92 l 266 305 z "},"²":{"ha":688,"x_min":0,"x_max":0,"o":""},"³":{"ha":688,"x_min":0,"x_max":0,"o":""},"´":{"ha":477,"x_min":164,"x_max":393,"o":"m 393 1200 l 393 1199 l 193 1075 l 164 1120 l 164 1120 l 366 1244 l 393 1200 z "},"µ":{"ha":730,"x_min":109,"x_max":621,"o":"m 109 644 l 162 644 l 162 222 q 271 64 162 100 q 343 54 306 54 l 387 54 q 551 138 502 54 q 568 224 568 174 l 568 642 l 569 644 l 619 644 l 621 642 l 621 11 l 619 9 l 569 9 l 568 11 l 568 83 q 392 0 497 0 l 338 0 q 162 70 231 0 l 162 -271 l 161 -271 l 109 -271 l 109 -271 l 109 644 z "},"¶":{"ha":730,"x_min":73,"x_max":609,"o":"m 315 136 l 315 467 q 138 533 203 473 q 73 691 73 594 q 142 853 73 791 q 325 915 211 915 l 609 915 l 609 862 l 608 861 l 530 861 l 530 136 l 475 136 l 475 861 l 368 861 l 368 136 l 315 136 z "},"·":{"ha":409,"x_min":164,"x_max":245,"o":"m 203 537 l 205 537 q 240 515 227 537 q 245 496 245 507 q 228 464 245 477 q 205 456 217 456 l 203 456 q 173 471 186 456 q 164 494 164 483 l 164 498 q 183 531 164 517 q 203 537 193 537 z "},"¸":{"ha":500,"x_min":164,"x_max":336,"o":"m 218 23 q 264 14 262 14 l 255 -28 q 330 -74 310 -28 q 336 -109 336 -92 q 302 -178 336 -150 q 244 -198 276 -198 q 164 -155 197 -198 l 164 -154 q 184 -140 165 -153 q 203 -127 202 -127 q 245 -151 221 -151 q 281 -132 266 -151 q 289 -110 289 -121 l 289 -107 q 280 -83 289 -94 q 259 -76 272 -76 l 255 -76 q 216 -86 241 -76 l 194 -94 l 194 -93 l 217 22 l 217 23 l 218 23 z "},"¹":{"ha":688,"x_min":0,"x_max":0,"o":""},"º":{"ha":487,"x_min":0,"x_max":0,"o":""},"»":{"ha":752,"x_min":118,"x_max":673,"o":"m 673 279 l 419 113 q 389 157 418 114 l 389 157 l 614 304 l 599 315 q 389 452 395 448 l 419 497 l 475 459 q 673 330 649 346 l 673 279 m 401 279 l 148 113 q 118 157 146 114 l 118 157 l 342 304 l 328 315 q 118 452 124 448 l 148 497 l 204 459 q 401 330 378 346 l 401 279 z "},"¼":{"ha":1158,"x_min":0,"x_max":0,"o":""},"½":{"ha":1332,"x_min":0,"x_max":0,"o":""},"¾":{"ha":1158,"x_min":0,"x_max":0,"o":""},"¿":{"ha":654,"x_min":64,"x_max":564,"o":"m 320 892 q 285 910 299 892 q 277 935 277 922 q 298 973 277 959 q 318 979 309 979 l 323 979 q 356 961 341 979 q 364 935 364 949 q 345 899 364 913 q 320 892 334 892 m 314 1 q 161 56 231 1 q 123 94 134 81 q 99 131 108 115 q 64 266 64 195 q 98 397 64 330 q 132 446 111 420 q 168 482 155 471 q 235 532 180 492 q 267 560 249 543 q 294 625 294 589 l 294 680 l 294 791 l 294 791 l 302 792 l 347 792 l 347 791 l 347 626 q 280 500 347 553 q 214 450 259 483 q 182 422 201 441 q 149 377 159 397 q 118 268 118 321 l 118 264 q 163 130 118 192 q 189 104 171 121 q 259 63 224 73 q 311 55 287 55 l 318 55 q 422 90 371 55 q 453 117 434 97 q 496 184 481 147 q 511 265 511 224 l 511 289 l 511 290 l 564 290 l 564 289 l 564 262 q 532 136 564 198 q 494 82 521 113 q 459 50 469 56 q 314 1 393 1 z "},"À":{"ha":838,"x_min":24,"x_max":819,"o":"m 335 1244 l 536 1120 l 536 1120 l 508 1075 l 307 1199 l 307 1200 l 335 1244 m 387 993 l 456 993 q 505 859 459 989 l 819 1 l 819 0 l 763 0 q 741 59 759 5 l 670 252 l 173 252 q 130 138 172 252 l 80 0 l 24 0 l 24 1 l 357 913 q 387 993 384 988 m 420 932 l 192 306 l 650 306 l 421 932 l 420 932 z "},"Á":{"ha":838,"x_min":24,"x_max":819,"o":"m 307 1120 l 307 1120 l 508 1244 l 536 1200 l 536 1199 l 335 1075 l 307 1120 m 387 993 l 456 993 q 505 859 459 989 l 819 1 l 819 0 l 763 0 q 741 59 759 5 l 670 252 l 173 252 q 130 138 172 252 l 80 0 l 24 0 l 24 1 l 357 913 q 387 993 384 988 m 420 932 l 192 306 l 650 306 l 421 932 l 420 932 z "},"Â":{"ha":838,"x_min":24,"x_max":819,"o":"m 401 1267 l 442 1267 l 576 1109 l 535 1075 l 534 1075 l 421 1209 q 308 1075 313 1080 q 267 1109 279 1099 l 401 1267 m 387 993 l 456 993 q 505 859 459 989 l 819 1 l 819 0 l 763 0 q 741 59 759 5 l 670 252 l 173 252 q 130 138 172 252 l 80 0 l 24 0 l 24 1 l 357 913 q 387 993 384 988 m 420 932 l 192 306 l 650 306 l 421 932 l 420 932 z "},"Ã":{"ha":838,"x_min":24,"x_max":819,"o":"m 546 1122 q 519 1099 533 1107 q 481 1088 500 1088 q 421 1109 460 1088 q 361 1131 382 1131 q 326 1118 345 1131 q 298 1092 313 1110 l 298 1152 q 323 1174 311 1167 q 361 1185 343 1185 q 423 1164 383 1185 q 481 1143 463 1143 q 517 1155 498 1143 q 546 1181 530 1163 l 546 1122 m 387 993 l 456 993 q 505 859 459 989 l 819 1 l 819 0 l 763 0 q 741 59 759 5 l 670 252 l 173 252 q 130 138 172 252 l 80 0 l 24 0 l 24 1 l 357 913 q 387 993 384 988 m 420 932 l 192 306 l 650 306 l 421 932 l 420 932 z "},"Ä":{"ha":838,"x_min":24,"x_max":819,"o":"m 319 1176 l 320 1176 q 355 1154 342 1176 q 360 1135 360 1145 q 343 1103 360 1116 q 321 1095 332 1095 l 318 1095 q 288 1110 301 1095 q 279 1133 279 1122 l 279 1137 q 298 1170 279 1156 q 319 1176 309 1176 m 522 1176 l 524 1176 q 559 1154 546 1176 q 564 1135 564 1145 q 547 1103 564 1116 q 524 1095 536 1095 l 522 1095 q 492 1110 505 1095 q 483 1133 483 1122 l 483 1137 q 502 1170 483 1156 q 522 1176 512 1176 m 387 993 l 456 993 q 505 859 459 989 l 819 1 l 819 0 l 763 0 q 741 59 759 5 l 670 252 l 173 252 q 130 138 172 252 l 80 0 l 24 0 l 24 1 l 357 913 q 387 993 384 988 m 420 932 l 192 306 l 650 306 l 421 932 l 420 932 z "},"Å":{"ha":838,"x_min":24,"x_max":819,"o":"m 379 1080 q 393 1048 379 1061 q 422 1038 406 1038 q 452 1050 439 1038 q 460 1062 458 1057 q 464 1079 464 1070 l 464 1080 q 452 1109 464 1096 q 422 1122 439 1122 q 389 1106 403 1122 q 379 1080 379 1094 m 420 932 l 192 306 l 650 306 l 421 932 l 420 932 m 387 993 q 356 1013 370 1000 q 340 1034 345 1025 q 328 1078 328 1055 l 328 1081 q 349 1138 328 1112 q 366 1154 359 1150 q 422 1173 391 1173 q 488 1145 460 1173 q 515 1080 515 1117 q 486 1010 515 1041 q 456 993 471 998 q 505 859 459 989 l 819 1 l 819 0 l 763 0 q 741 59 759 5 l 670 252 l 173 252 q 130 138 172 252 l 80 0 l 24 0 l 24 1 l 357 913 q 387 993 383 986 z "},"Æ":{"ha":1180,"x_min":24,"x_max":1107,"o":"m 1104 993 l 1107 990 l 1107 943 l 1104 940 l 699 940 l 696 937 l 696 523 l 1027 523 l 1029 520 l 1029 473 l 1027 470 l 696 470 l 696 54 l 1104 54 l 1107 52 l 1107 3 l 1104 0 l 642 0 l 638 3 l 638 314 l 270 314 q 78 0 84 4 l 26 0 l 24 3 l 628 991 l 630 993 l 1104 993 m 635 913 l 303 366 l 637 366 l 637 913 l 635 913 z "},"Ç":{"ha":916,"x_min":66,"x_max":871,"o":"m 479 1 l 473 -28 q 548 -74 528 -28 q 555 -109 555 -92 q 520 -178 555 -150 q 463 -198 494 -198 q 382 -155 416 -198 l 382 -154 q 402 -140 384 -153 q 421 -127 420 -127 q 463 -151 439 -151 q 500 -132 484 -151 q 507 -110 507 -121 l 507 -107 q 498 -83 507 -94 q 477 -76 490 -76 l 473 -76 q 435 -86 459 -76 l 412 -94 l 412 -93 l 432 5 q 207 129 309 26 q 102 295 136 207 q 66 493 66 394 l 66 500 q 200 857 66 703 q 496 993 330 993 l 499 993 q 804 844 671 993 q 870 743 857 778 l 870 741 l 823 720 l 823 720 q 786 781 823 724 q 496 939 665 939 q 218 795 338 939 q 119 496 119 663 q 238 174 119 312 q 321 105 288 122 q 487 54 406 54 l 507 54 q 703 126 606 54 q 783 207 751 165 q 824 276 806 241 l 825 276 l 871 254 l 871 253 q 823 172 864 231 q 696 57 758 91 q 496 0 602 0 q 479 1 488 0 z "},"È":{"ha":654,"x_min":117,"x_max":581,"o":"m 262 1244 l 464 1120 l 464 1120 l 435 1075 l 235 1199 l 235 1200 l 262 1244 m 117 993 l 581 993 l 581 992 l 581 940 l 581 939 l 170 939 l 170 523 l 503 523 l 503 470 l 170 470 l 170 54 l 581 54 l 581 53 l 581 1 l 581 0 l 117 0 l 117 1 l 117 992 l 117 993 z "},"É":{"ha":654,"x_min":117,"x_max":581,"o":"m 117 993 l 581 993 l 581 992 l 581 940 l 581 939 l 170 939 l 170 523 l 503 523 l 503 470 l 170 470 l 170 54 l 581 54 l 581 53 l 581 1 l 581 0 l 117 0 l 117 1 l 117 992 l 117 993 m 464 1200 l 464 1199 l 263 1075 l 235 1120 l 235 1120 l 436 1244 l 464 1200 z "},"Ê":{"ha":654,"x_min":117,"x_max":581,"o":"m 117 993 l 581 993 l 581 992 l 581 940 l 581 939 l 170 939 l 170 523 l 503 523 l 503 470 l 170 470 l 170 54 l 581 54 l 581 53 l 581 1 l 581 0 l 117 0 l 117 1 l 117 992 l 117 993 m 328 1267 l 370 1267 l 503 1109 l 463 1075 l 462 1075 l 349 1209 q 235 1075 240 1080 q 195 1109 207 1099 l 328 1267 z "},"Ë":{"ha":654,"x_min":117,"x_max":581,"o":"m 246 1176 l 248 1176 q 283 1154 270 1176 q 288 1135 288 1145 q 271 1103 288 1116 q 248 1095 260 1095 l 245 1095 q 216 1110 229 1095 q 207 1133 207 1122 l 207 1137 q 226 1170 207 1156 q 246 1176 236 1176 m 450 1176 l 451 1176 q 486 1154 473 1176 q 491 1135 491 1145 q 474 1103 491 1116 q 452 1095 463 1095 l 449 1095 q 419 1110 432 1095 q 410 1133 410 1122 l 410 1137 q 429 1170 410 1156 q 450 1176 439 1176 m 117 993 l 581 993 l 581 992 l 581 940 l 581 939 l 170 939 l 170 523 l 503 523 l 503 470 l 170 470 l 170 54 l 581 54 l 581 53 l 581 1 l 581 0 l 117 0 l 117 1 l 117 992 l 117 993 z "},"Ì":{"ha":287,"x_min":28,"x_max":258,"o":"m 170 993 l 170 1 l 170 0 l 117 0 l 117 1 l 117 993 l 170 993 m 56 1244 l 258 1120 l 258 1120 l 229 1075 l 28 1199 l 28 1200 l 56 1244 z "},"Í":{"ha":287,"x_min":28,"x_max":258,"o":"m 170 993 l 170 1 l 170 0 l 117 0 l 117 1 l 117 993 l 170 993 m 258 1200 l 258 1199 l 57 1075 l 28 1120 l 28 1120 l 230 1244 l 258 1200 z "},"Î":{"ha":287,"x_min":-11,"x_max":298,"o":"m 170 993 l 170 1 l 170 0 l 117 0 l 117 1 l 117 993 l 170 993 m 123 1267 l 164 1267 l 298 1109 l 257 1075 l 256 1075 l 143 1209 q 30 1075 35 1080 q -11 1109 1 1099 l 123 1267 z "},"Ï":{"ha":287,"x_min":22,"x_max":265,"o":"m 170 993 l 170 1 l 170 0 l 117 0 l 117 1 l 117 993 l 170 993 m 61 1176 l 62 1176 q 98 1154 85 1176 q 102 1135 102 1145 q 85 1103 102 1116 q 63 1095 75 1095 l 60 1095 q 31 1110 43 1095 q 22 1133 22 1122 l 22 1137 q 41 1170 22 1156 q 61 1176 51 1176 m 224 1176 l 225 1176 q 260 1154 248 1176 q 265 1135 265 1145 q 248 1103 265 1116 q 226 1095 237 1095 l 223 1095 q 193 1110 206 1095 q 184 1133 184 1122 l 184 1137 q 203 1170 184 1156 q 224 1176 214 1176 z "},"Ð":{"ha":905,"x_min":76,"x_max":842,"o":"m 215 524 l 370 524 l 370 471 l 215 471 l 215 54 l 388 54 q 642 156 523 54 q 719 250 699 213 q 788 496 788 366 q 659 821 788 682 q 376 939 538 939 l 215 939 l 215 524 m 161 471 l 76 471 l 76 524 l 161 524 l 161 991 l 163 993 l 382 993 q 697 858 558 993 q 842 496 842 704 q 733 177 842 321 q 643 88 684 118 q 560 39 596 56 q 463 9 484 9 q 356 0 431 0 l 163 0 l 161 2 l 161 471 z "},"Ñ":{"ha":921,"x_min":117,"x_max":804,"o":"m 585 1122 q 558 1099 572 1107 q 519 1088 538 1088 q 460 1109 499 1088 q 400 1131 420 1131 q 364 1118 383 1131 q 336 1092 352 1110 l 336 1152 q 362 1174 349 1167 q 400 1185 382 1185 q 461 1164 422 1185 q 519 1143 501 1143 q 556 1155 537 1143 q 585 1181 568 1163 l 585 1122 m 119 993 l 201 993 q 260 895 208 985 l 750 56 l 751 56 l 751 991 l 753 993 l 802 993 l 804 991 l 804 2 l 802 0 l 722 0 q 683 65 718 3 l 174 937 l 172 937 l 172 2 l 171 0 l 122 0 q 117 3 117 0 l 117 991 l 119 993 z "},"Ò":{"ha":1004,"x_min":67,"x_max":943,"o":"m 418 1244 l 620 1120 l 620 1120 l 591 1075 l 391 1199 l 391 1200 l 418 1244 m 504 993 l 509 993 q 811 853 677 993 q 876 763 855 801 q 943 508 943 636 l 943 488 q 852 192 943 332 q 785 113 833 163 l 745 81 q 505 0 634 0 q 208 132 338 0 q 67 496 67 286 l 67 500 q 208 863 67 706 q 504 993 340 993 m 121 496 q 242 173 121 313 q 349 92 309 108 q 416 66 370 79 q 495 54 460 54 l 515 54 q 735 140 627 54 q 811 227 793 197 q 890 493 890 351 l 890 500 q 781 806 890 670 q 504 939 662 939 q 222 798 345 939 q 121 496 121 664 z "},"Ó":{"ha":1004,"x_min":67,"x_max":943,"o":"m 391 1120 l 391 1120 l 591 1244 l 620 1200 l 620 1199 l 418 1075 l 391 1120 m 504 993 l 509 993 q 811 853 677 993 q 876 763 855 801 q 943 508 943 636 l 943 488 q 852 192 943 332 q 785 113 833 163 l 745 81 q 505 0 634 0 q 208 132 338 0 q 67 496 67 286 l 67 500 q 208 863 67 706 q 504 993 340 993 m 121 496 q 242 173 121 313 q 349 92 309 108 q 416 66 370 79 q 495 54 460 54 l 515 54 q 735 140 627 54 q 811 227 793 197 q 890 493 890 351 l 890 500 q 781 806 890 670 q 504 939 662 939 q 222 798 345 939 q 121 496 121 664 z "},"Ô":{"ha":1004,"x_min":67,"x_max":943,"o":"m 485 1267 l 526 1267 l 660 1109 l 619 1075 l 618 1075 l 505 1209 q 392 1075 397 1080 q 351 1109 363 1099 l 485 1267 m 504 993 l 509 993 q 811 853 677 993 q 876 763 855 801 q 943 508 943 636 l 943 488 q 852 192 943 332 q 785 113 833 163 l 745 81 q 505 0 634 0 q 208 132 338 0 q 67 496 67 286 l 67 500 q 208 863 67 706 q 504 993 340 993 m 121 496 q 242 173 121 313 q 349 92 309 108 q 416 66 370 79 q 495 54 460 54 l 515 54 q 735 140 627 54 q 811 227 793 197 q 890 493 890 351 l 890 500 q 781 806 890 670 q 504 939 662 939 q 222 798 345 939 q 121 496 121 664 z "},"Õ":{"ha":1004,"x_min":67,"x_max":943,"o":"m 629 1122 q 603 1099 616 1107 q 564 1088 583 1088 q 505 1109 544 1088 q 445 1131 465 1131 q 409 1118 428 1131 q 381 1092 397 1110 l 381 1152 q 407 1174 394 1167 q 445 1185 427 1185 q 506 1164 467 1185 q 564 1143 546 1143 q 601 1155 582 1143 q 629 1181 613 1163 l 629 1122 m 504 993 l 509 993 q 811 853 677 993 q 876 763 855 801 q 943 508 943 636 l 943 488 q 852 192 943 332 q 785 113 833 163 l 745 81 q 505 0 634 0 q 208 132 338 0 q 67 496 67 286 l 67 500 q 208 863 67 706 q 504 993 340 993 m 121 496 q 242 173 121 313 q 349 92 309 108 q 416 66 370 79 q 495 54 460 54 l 515 54 q 735 140 627 54 q 811 227 793 197 q 890 493 890 351 l 890 500 q 781 806 890 670 q 504 939 662 939 q 222 798 345 939 q 121 496 121 664 z "},"Ö":{"ha":1004,"x_min":67,"x_max":943,"o":"m 403 1176 l 404 1176 q 439 1154 427 1176 q 444 1135 444 1145 q 427 1103 444 1116 q 405 1095 416 1095 l 402 1095 q 372 1110 385 1095 q 363 1133 363 1122 l 363 1137 q 382 1170 363 1156 q 403 1176 393 1176 m 606 1176 l 608 1176 q 643 1154 630 1176 q 648 1135 648 1145 q 631 1103 648 1116 q 608 1095 620 1095 l 606 1095 q 576 1110 589 1095 q 567 1133 567 1122 l 567 1137 q 586 1170 567 1156 q 606 1176 596 1176 m 504 993 l 509 993 q 811 853 677 993 q 876 763 855 801 q 943 508 943 636 l 943 488 q 852 192 943 332 q 785 113 833 163 l 745 81 q 505 0 634 0 q 208 132 338 0 q 67 496 67 286 l 67 500 q 208 863 67 706 q 504 993 340 993 m 121 496 q 242 173 121 313 q 349 92 309 108 q 416 66 370 79 q 495 54 460 54 l 515 54 q 735 140 627 54 q 811 227 793 197 q 890 493 890 351 l 890 500 q 781 806 890 670 q 504 939 662 939 q 222 798 345 939 q 121 496 121 664 z "},"×":{"ha":509,"x_min":65,"x_max":444,"o":"m 254 281 l 103 130 l 65 168 l 216 319 l 66 470 l 66 471 l 102 509 l 104 508 l 254 357 l 405 508 l 406 508 l 443 471 l 443 470 l 292 319 l 444 168 l 406 130 l 254 281 z "},"Ø":{"ha":1004,"x_min":67,"x_max":943,"o":"m 715 867 q 504 939 620 939 q 222 798 345 939 q 121 496 121 664 q 242 173 121 313 q 267 150 255 161 l 715 867 m 756 832 l 309 115 q 349 92 332 99 q 416 66 370 79 q 495 54 460 54 l 515 54 q 735 140 627 54 q 811 227 793 197 q 890 493 890 351 l 890 500 q 781 806 890 670 q 756 832 769 820 m 238 104 q 208 132 222 117 q 67 496 67 286 l 67 500 q 208 863 67 706 q 504 993 340 993 l 509 993 q 743 913 636 993 l 805 1011 l 850 983 l 785 878 q 811 853 798 867 q 876 763 855 801 q 943 508 943 636 l 943 488 q 852 192 943 332 q 785 113 833 163 l 745 81 q 505 0 634 0 q 280 71 383 0 l 218 -28 l 218 -29 l 173 -1 l 173 0 l 238 104 z "},"Ù":{"ha":887,"x_min":115,"x_max":772,"o":"m 357 1244 l 559 1120 l 559 1120 l 530 1075 l 330 1199 l 330 1200 l 357 1244 m 117 993 l 167 993 l 169 991 l 169 359 q 295 83 169 163 q 350 60 319 68 q 426 54 376 54 l 460 54 q 575 74 541 54 q 694 210 652 108 q 718 344 718 274 l 718 991 l 720 993 l 770 993 l 772 991 l 772 381 q 739 177 772 246 q 701 112 725 142 q 479 0 619 0 l 408 0 q 152 169 235 0 q 115 347 115 251 l 115 991 l 117 993 z "},"Ú":{"ha":887,"x_min":115,"x_max":772,"o":"m 330 1120 l 330 1120 l 530 1244 l 559 1200 l 559 1199 l 357 1075 l 330 1120 m 117 993 l 167 993 l 169 991 l 169 359 q 295 83 169 163 q 350 60 319 68 q 426 54 376 54 l 460 54 q 575 74 541 54 q 694 210 652 108 q 718 344 718 274 l 718 991 l 720 993 l 770 993 l 772 991 l 772 381 q 739 177 772 246 q 701 112 725 142 q 479 0 619 0 l 408 0 q 152 169 235 0 q 115 347 115 251 l 115 991 l 117 993 z "},"Û":{"ha":887,"x_min":115,"x_max":772,"o":"m 423 1267 l 465 1267 l 598 1109 l 557 1075 l 557 1075 l 444 1209 q 330 1075 335 1080 q 290 1109 302 1099 l 423 1267 m 117 993 l 167 993 l 169 991 l 169 359 q 295 83 169 163 q 350 60 319 68 q 426 54 376 54 l 460 54 q 575 74 541 54 q 694 210 652 108 q 718 344 718 274 l 718 991 l 720 993 l 770 993 l 772 991 l 772 381 q 739 177 772 246 q 701 112 725 142 q 479 0 619 0 l 408 0 q 152 169 235 0 q 115 347 115 251 l 115 991 l 117 993 z "},"Ü":{"ha":887,"x_min":115,"x_max":772,"o":"m 341 1176 l 342 1176 q 378 1154 365 1176 q 382 1135 382 1145 q 366 1103 382 1116 q 343 1095 355 1095 l 340 1095 q 311 1110 323 1095 q 302 1133 302 1122 l 302 1137 q 321 1170 302 1156 q 341 1176 331 1176 m 545 1176 l 546 1176 q 581 1154 568 1176 q 586 1135 586 1145 q 569 1103 586 1116 q 547 1095 558 1095 l 544 1095 q 514 1110 527 1095 q 505 1133 505 1122 l 505 1137 q 524 1170 505 1156 q 545 1176 534 1176 m 117 993 l 167 993 l 169 991 l 169 359 q 295 83 169 163 q 350 60 319 68 q 426 54 376 54 l 460 54 q 575 74 541 54 q 694 210 652 108 q 718 344 718 274 l 718 991 l 720 993 l 770 993 l 772 991 l 772 381 q 739 177 772 246 q 701 112 725 142 q 479 0 619 0 l 408 0 q 152 169 235 0 q 115 347 115 251 l 115 991 l 117 993 z "},"Ý":{"ha":726,"x_min":20,"x_max":708,"o":"m 250 1120 l 250 1120 l 450 1244 l 479 1200 l 479 1199 l 277 1075 l 250 1120 m 20 993 l 83 993 q 363 538 89 988 l 366 538 l 644 993 l 708 993 l 708 992 l 391 479 l 391 2 l 389 0 l 337 0 l 335 2 l 335 484 l 20 991 l 20 993 z "},"Þ":{"ha":845,"x_min":104,"x_max":785,"o":"m 157 728 l 157 265 l 464 265 q 670 323 596 265 q 699 352 690 340 q 715 379 709 367 q 732 460 732 412 l 732 533 q 706 631 732 592 q 652 683 686 661 q 460 728 581 728 l 157 728 m 157 781 l 465 781 q 696 718 608 781 q 785 537 785 648 l 785 456 q 705 283 785 351 q 586 227 656 243 q 469 212 529 212 l 157 212 l 157 1 l 157 0 l 104 0 l 104 1 l 104 992 l 104 993 l 157 993 l 157 992 l 157 781 z "},"ß":{"ha":845,"x_min":104,"x_max":781,"o":"m 356 993 l 361 993 q 572 928 494 993 q 623 812 623 880 l 623 810 q 559 650 623 735 q 505 528 505 573 q 616 413 505 467 q 781 201 781 315 q 703 55 781 123 q 536 -5 625 -5 q 311 130 404 -5 l 302 144 q 349 172 345 172 q 481 56 397 87 q 530 50 511 50 l 543 50 q 684 109 617 50 q 728 202 728 157 q 544 392 728 297 q 452 527 452 452 l 452 532 q 530 702 452 595 q 570 812 570 760 q 430 933 570 906 q 356 939 389 939 q 166 822 214 939 q 157 782 157 796 l 157 1 l 155 0 l 106 0 l 104 1 l 104 787 q 140 889 104 827 q 356 993 212 993 z "},"à":{"ha":757,"x_min":62,"x_max":655,"o":"m 272 896 l 473 772 l 473 771 l 445 726 l 244 850 l 244 851 l 272 896 m 357 644 l 361 644 q 593 520 497 644 l 602 506 l 603 506 l 603 636 l 605 638 l 654 638 l 655 636 l 655 8 l 654 6 l 605 6 l 603 8 l 603 138 l 602 138 q 446 14 549 52 q 357 0 404 0 q 127 119 224 0 q 62 321 62 211 l 62 323 q 155 556 62 456 q 357 644 244 644 m 115 323 q 218 102 115 190 q 359 52 284 52 q 536 138 460 52 q 603 323 603 218 q 534 510 603 428 q 358 592 458 592 q 163 485 244 592 q 115 323 115 408 z "},"á":{"ha":757,"x_min":62,"x_max":655,"o":"m 244 771 l 244 772 l 445 896 l 473 851 l 473 850 l 272 726 l 244 771 m 357 644 l 361 644 q 593 520 497 644 l 602 506 l 603 506 l 603 636 l 605 638 l 654 638 l 655 636 l 655 8 l 654 6 l 605 6 l 603 8 l 603 138 l 602 138 q 446 14 549 52 q 357 0 404 0 q 127 119 224 0 q 62 321 62 211 l 62 323 q 155 556 62 456 q 357 644 244 644 m 115 323 q 218 102 115 190 q 359 52 284 52 q 536 138 460 52 q 603 323 603 218 q 534 510 603 428 q 358 592 458 592 q 163 485 244 592 q 115 323 115 408 z "},"â":{"ha":757,"x_min":62,"x_max":655,"o":"m 338 919 l 379 919 l 513 761 l 472 726 l 471 726 l 358 861 q 245 726 250 732 q 204 761 216 750 l 338 919 m 357 644 l 361 644 q 593 520 497 644 l 602 506 l 603 506 l 603 636 l 605 638 l 654 638 l 655 636 l 655 8 l 654 6 l 605 6 l 603 8 l 603 138 l 602 138 q 446 14 549 52 q 357 0 404 0 q 127 119 224 0 q 62 321 62 211 l 62 323 q 155 556 62 456 q 357 644 244 644 m 115 323 q 218 102 115 190 q 359 52 284 52 q 536 138 460 52 q 603 323 603 218 q 534 510 603 428 q 358 592 458 592 q 163 485 244 592 q 115 323 115 408 z "},"ã":{"ha":757,"x_min":62,"x_max":655,"o":"m 483 773 q 456 751 470 758 q 418 740 437 740 q 358 761 397 740 q 298 782 319 782 q 262 770 281 782 q 235 743 250 762 l 235 803 q 260 825 248 819 q 298 837 280 837 q 360 815 320 837 q 418 794 399 794 q 454 806 435 794 q 483 833 467 814 l 483 773 m 357 644 l 361 644 q 593 520 497 644 l 602 506 l 603 506 l 603 636 l 605 638 l 654 638 l 655 636 l 655 8 l 654 6 l 605 6 l 603 8 l 603 138 l 602 138 q 446 14 549 52 q 357 0 404 0 q 127 119 224 0 q 62 321 62 211 l 62 323 q 155 556 62 456 q 357 644 244 644 m 115 323 q 218 102 115 190 q 359 52 284 52 q 536 138 460 52 q 603 323 603 218 q 534 510 603 428 q 358 592 458 592 q 163 485 244 592 q 115 323 115 408 z "},"ä":{"ha":757,"x_min":62,"x_max":655,"o":"m 256 827 l 257 827 q 292 806 279 827 q 297 787 297 797 q 280 754 297 767 q 258 747 269 747 l 255 747 q 225 762 238 747 q 216 785 216 773 l 216 789 q 235 821 216 808 q 256 827 245 827 m 459 827 l 460 827 q 496 806 483 827 q 500 787 500 797 q 484 754 500 767 q 461 747 473 747 l 458 747 q 429 762 441 747 q 420 785 420 773 l 420 789 q 439 821 420 808 q 459 827 449 827 m 357 644 l 361 644 q 593 520 497 644 l 602 506 l 603 506 l 603 636 l 605 638 l 654 638 l 655 636 l 655 8 l 654 6 l 605 6 l 603 8 l 603 138 l 602 138 q 446 14 549 52 q 357 0 404 0 q 127 119 224 0 q 62 321 62 211 l 62 323 q 155 556 62 456 q 357 644 244 644 m 115 323 q 218 102 115 190 q 359 52 284 52 q 536 138 460 52 q 603 323 603 218 q 534 510 603 428 q 358 592 458 592 q 163 485 244 592 q 115 323 115 408 z "},"å":{"ha":757,"x_min":62,"x_max":655,"o":"m 358 879 q 418 850 393 879 q 435 802 435 829 q 406 743 435 768 q 358 726 384 726 q 296 758 321 726 q 282 802 282 779 l 282 804 q 303 856 282 832 q 358 879 326 879 m 326 802 q 345 773 326 783 q 358 770 353 770 q 387 788 376 770 q 391 803 391 795 q 373 831 391 821 q 358 835 366 835 q 329 816 339 835 q 326 802 326 810 m 357 644 l 361 644 q 593 520 497 644 l 602 506 l 603 506 l 603 636 l 605 638 l 654 638 l 655 636 l 655 8 l 654 6 l 605 6 l 603 8 l 603 138 l 602 138 q 446 14 549 52 q 357 0 404 0 q 127 119 224 0 q 62 321 62 211 l 62 323 q 155 556 62 456 q 357 644 244 644 m 115 323 q 218 102 115 190 q 359 52 284 52 q 536 138 460 52 q 603 323 603 218 q 534 510 603 428 q 358 592 458 592 q 163 485 244 592 q 115 323 115 408 z "},"æ":{"ha":1263,"x_min":62,"x_max":1208,"o":"m 115 323 q 218 102 115 190 q 359 52 284 52 q 536 138 460 52 q 603 323 603 218 q 534 510 603 428 q 358 592 458 592 q 163 485 244 592 q 115 323 115 408 m 672 372 l 1152 372 q 1124 454 1150 396 q 986 578 1074 547 q 911 591 951 591 q 726 496 804 591 q 672 372 687 448 m 655 160 l 655 8 l 654 6 l 605 6 l 603 8 l 603 138 l 602 138 q 446 14 549 52 q 357 0 404 0 q 127 119 224 0 q 62 321 62 211 l 62 323 q 155 556 62 456 q 357 644 244 644 l 361 644 q 593 520 497 644 l 602 506 l 603 506 l 603 636 l 605 638 l 654 638 l 655 636 l 655 484 q 707 555 676 522 q 909 644 796 644 l 913 644 q 1126 545 1034 644 q 1208 321 1208 446 l 1207 319 l 667 319 q 757 113 667 200 q 911 52 827 52 q 1102 154 1023 52 q 1136 216 1124 186 l 1137 220 q 1186 202 1186 205 q 1147 126 1172 163 q 909 0 1052 0 q 680 119 777 0 q 655 160 666 139 z "},"ç":{"ha":648,"x_min":61,"x_max":604,"o":"m 344 0 l 337 -28 q 412 -74 392 -28 q 418 -109 418 -92 q 384 -178 418 -150 q 326 -198 358 -198 q 246 -155 279 -198 l 246 -154 q 266 -140 248 -153 q 285 -127 284 -127 q 327 -151 303 -151 q 363 -132 348 -151 q 371 -110 371 -121 l 371 -107 q 362 -83 371 -94 q 341 -76 354 -76 l 337 -76 q 298 -86 323 -76 l 276 -94 l 276 -93 l 295 7 q 144 98 212 26 q 61 321 61 195 l 61 323 q 153 556 61 456 q 356 644 243 644 l 359 644 q 580 536 486 644 l 602 504 q 558 477 562 477 q 357 592 478 592 q 162 485 243 592 q 113 323 113 408 q 216 102 113 190 q 357 52 283 52 q 556 165 475 52 q 560 171 559 169 q 604 142 602 146 q 443 13 549 52 q 356 0 399 0 l 344 0 z "},"è":{"ha":694,"x_min":45,"x_max":639,"o":"m 256 896 l 457 772 l 457 771 l 429 726 l 228 850 l 228 851 l 256 896 m 102 372 l 582 372 q 555 454 581 396 q 416 578 505 547 q 341 591 381 591 q 157 496 235 591 q 102 372 117 448 m 340 644 l 343 644 q 556 545 464 644 q 639 321 639 446 l 637 319 l 98 319 q 187 113 98 200 q 342 52 258 52 q 532 154 454 52 q 566 216 554 186 l 567 220 q 616 202 616 205 q 578 126 602 163 q 340 0 482 0 q 111 119 207 0 q 45 321 45 211 l 45 323 q 138 555 45 456 q 340 644 227 644 z "},"é":{"ha":694,"x_min":45,"x_max":639,"o":"m 457 851 l 457 850 l 256 726 l 228 771 l 228 772 l 429 896 l 457 851 m 102 372 l 582 372 q 555 454 581 396 q 416 578 505 547 q 341 591 381 591 q 157 496 235 591 q 102 372 117 448 m 340 644 l 343 644 q 556 545 464 644 q 639 321 639 446 l 637 319 l 98 319 q 187 113 98 200 q 342 52 258 52 q 532 154 454 52 q 566 216 554 186 l 567 220 q 616 202 616 205 q 578 126 602 163 q 340 0 482 0 q 111 119 207 0 q 45 321 45 211 l 45 323 q 138 555 45 456 q 340 644 227 644 z "},"ê":{"ha":694,"x_min":45,"x_max":639,"o":"m 321 919 l 363 919 l 496 761 l 456 726 l 455 726 l 342 861 q 229 726 233 732 q 188 761 200 750 l 321 919 m 102 372 l 582 372 q 555 454 581 396 q 416 578 505 547 q 341 591 381 591 q 157 496 235 591 q 102 372 117 448 m 340 644 l 343 644 q 556 545 464 644 q 639 321 639 446 l 637 319 l 98 319 q 187 113 98 200 q 342 52 258 52 q 532 154 454 52 q 566 216 554 186 l 567 220 q 616 202 616 205 q 578 126 602 163 q 340 0 482 0 q 111 119 207 0 q 45 321 45 211 l 45 323 q 138 555 45 456 q 340 644 227 644 z "},"ë":{"ha":694,"x_min":45,"x_max":639,"o":"m 239 827 l 241 827 q 276 806 263 827 q 281 787 281 797 q 264 754 281 767 q 241 747 253 747 l 239 747 q 209 762 222 747 q 200 785 200 773 l 200 789 q 219 821 200 808 q 239 827 229 827 m 443 827 l 444 827 q 479 806 467 827 q 484 787 484 797 q 467 754 484 767 q 445 747 456 747 l 442 747 q 412 762 425 747 q 404 785 404 773 l 404 789 q 422 821 404 808 q 443 827 433 827 m 102 372 l 582 372 q 555 454 581 396 q 416 578 505 547 q 341 591 381 591 q 157 496 235 591 q 102 372 117 448 m 340 644 l 343 644 q 556 545 464 644 q 639 321 639 446 l 637 319 l 98 319 q 187 113 98 200 q 342 52 258 52 q 532 154 454 52 q 566 216 554 186 l 567 220 q 616 202 616 205 q 578 126 602 163 q 340 0 482 0 q 111 119 207 0 q 45 321 45 211 l 45 323 q 138 555 45 456 q 340 644 227 644 z "},"ì":{"ha":267,"x_min":18,"x_max":248,"o":"m 160 644 l 160 1 l 159 0 l 107 0 l 106 1 l 106 644 l 160 644 m 46 896 l 248 772 l 248 771 l 219 726 l 18 850 l 18 851 l 46 896 z "},"í":{"ha":267,"x_min":18,"x_max":248,"o":"m 160 644 l 160 1 l 159 0 l 107 0 l 106 1 l 106 644 l 160 644 m 248 851 l 248 850 l 47 726 l 18 771 l 18 772 l 220 896 l 248 851 z "},"î":{"ha":267,"x_min":-21,"x_max":288,"o":"m 160 644 l 160 1 l 159 0 l 107 0 l 106 1 l 106 644 l 160 644 m 113 919 l 154 919 l 288 761 l 247 726 l 246 726 l 133 861 q 20 726 24 732 q -21 761 -9 750 l 113 919 z "},"ï":{"ha":267,"x_min":25,"x_max":241,"o":"m 160 644 l 160 1 l 159 0 l 107 0 l 106 1 l 106 644 l 160 644 m 64 827 l 66 827 q 101 806 88 827 q 106 787 106 797 q 89 754 106 767 q 66 747 78 747 l 64 747 q 34 762 47 747 q 25 785 25 773 l 25 789 q 44 821 25 808 q 64 827 54 827 m 200 827 l 201 827 q 237 806 224 827 q 241 787 241 797 q 224 754 241 767 q 202 747 214 747 l 199 747 q 170 762 182 747 q 161 785 161 773 l 161 789 q 180 821 161 808 q 200 827 190 827 z "},"ð":{"ha":772,"x_min":0,"x_max":0,"o":""},"ñ":{"ha":716,"x_min":104,"x_max":616,"o":"m 484 773 q 458 751 471 758 q 419 740 438 740 q 359 761 399 740 q 300 782 320 782 q 264 770 283 782 q 236 743 252 762 l 236 803 q 262 825 249 819 q 300 837 281 837 q 361 815 321 837 q 419 794 401 794 q 456 806 437 794 q 484 833 468 814 l 484 773 m 337 644 l 382 644 q 581 550 513 644 q 616 427 616 498 l 616 2 l 614 0 l 564 0 l 563 2 l 563 420 q 450 581 563 547 q 374 591 417 591 l 345 591 q 171 498 214 591 q 157 420 157 468 l 157 2 l 155 0 l 106 0 l 104 2 l 104 633 l 106 635 l 155 635 l 157 633 l 157 561 q 337 644 227 644 z "},"ò":{"ha":715,"x_min":61,"x_max":654,"o":"m 271 896 l 472 772 l 472 771 l 444 726 l 243 850 l 243 851 l 271 896 m 356 644 l 359 644 q 587 528 492 644 q 654 327 654 433 l 654 317 q 559 86 654 188 q 356 0 472 0 q 126 119 222 0 q 61 321 61 211 l 61 323 q 153 556 61 456 q 356 644 243 644 m 113 323 q 216 102 113 190 q 357 52 283 52 q 535 138 459 52 q 602 323 602 218 q 532 510 602 428 q 357 592 457 592 q 162 485 243 592 q 113 323 113 408 z "},"ó":{"ha":715,"x_min":61,"x_max":654,"o":"m 243 771 l 243 772 l 444 896 l 472 851 l 472 850 l 271 726 l 243 771 m 356 644 l 359 644 q 587 528 492 644 q 654 327 654 433 l 654 317 q 559 86 654 188 q 356 0 472 0 q 126 119 222 0 q 61 321 61 211 l 61 323 q 153 556 61 456 q 356 644 243 644 m 113 323 q 216 102 113 190 q 357 52 283 52 q 535 138 459 52 q 602 323 602 218 q 532 510 602 428 q 357 592 457 592 q 162 485 243 592 q 113 323 113 408 z "},"ô":{"ha":715,"x_min":61,"x_max":654,"o":"m 337 919 l 378 919 l 512 761 l 471 726 l 471 726 l 357 861 q 244 726 249 732 q 203 761 216 750 l 337 919 m 356 644 l 359 644 q 587 528 492 644 q 654 327 654 433 l 654 317 q 559 86 654 188 q 356 0 472 0 q 126 119 222 0 q 61 321 61 211 l 61 323 q 153 556 61 456 q 356 644 243 644 m 113 323 q 216 102 113 190 q 357 52 283 52 q 535 138 459 52 q 602 323 602 218 q 532 510 602 428 q 357 592 457 592 q 162 485 243 592 q 113 323 113 408 z "},"õ":{"ha":715,"x_min":61,"x_max":654,"o":"m 481 773 q 455 751 469 758 q 416 740 435 740 q 357 761 396 740 q 297 782 317 782 q 261 770 280 782 q 233 743 249 762 l 233 803 q 259 825 246 819 q 297 837 279 837 q 358 815 319 837 q 416 794 398 794 q 453 806 434 794 q 481 833 465 814 l 481 773 m 356 644 l 359 644 q 587 528 492 644 q 654 327 654 433 l 654 317 q 559 86 654 188 q 356 0 472 0 q 126 119 222 0 q 61 321 61 211 l 61 323 q 153 556 61 456 q 356 644 243 644 m 113 323 q 216 102 113 190 q 357 52 283 52 q 535 138 459 52 q 602 323 602 218 q 532 510 602 428 q 357 592 457 592 q 162 485 243 592 q 113 323 113 408 z "},"ö":{"ha":715,"x_min":61,"x_max":654,"o":"m 255 827 l 256 827 q 292 806 279 827 q 296 787 296 797 q 279 754 296 767 q 257 747 269 747 l 254 747 q 224 762 237 747 q 216 785 216 773 l 216 789 q 235 821 216 808 q 255 827 245 827 m 458 827 l 460 827 q 495 806 482 827 q 500 787 500 797 q 483 754 500 767 q 460 747 472 747 l 458 747 q 428 762 441 747 q 419 785 419 773 l 419 789 q 438 821 419 808 q 458 827 448 827 m 356 644 l 359 644 q 587 528 492 644 q 654 327 654 433 l 654 317 q 559 86 654 188 q 356 0 472 0 q 126 119 222 0 q 61 321 61 211 l 61 323 q 153 556 61 456 q 356 644 243 644 m 113 323 q 216 102 113 190 q 357 52 283 52 q 535 138 459 52 q 602 323 602 218 q 532 510 602 428 q 357 592 457 592 q 162 485 243 592 q 113 323 113 408 z "},"÷":{"ha":587,"x_min":65,"x_max":522,"o":"m 292 570 l 294 570 q 336 545 321 570 q 341 522 341 534 q 321 484 341 499 q 295 475 309 475 l 292 475 q 256 493 272 475 q 246 520 246 507 l 246 525 q 269 563 246 547 q 292 570 281 570 m 292 189 l 294 189 q 336 164 321 189 q 341 142 341 153 q 321 103 341 118 q 295 94 309 94 l 292 94 q 256 112 272 94 q 246 139 246 125 l 246 144 q 269 182 246 166 q 292 189 281 189 m 65 359 l 521 359 l 522 358 l 522 306 l 521 305 l 65 305 l 65 359 z "},"ø":{"ha":715,"x_min":61,"x_max":654,"o":"m 484 553 q 357 592 427 592 q 162 485 243 592 q 113 323 113 408 q 192 125 113 207 l 484 553 m 524 519 l 232 91 q 357 52 292 52 q 535 138 459 52 q 602 323 602 218 q 532 510 602 428 q 524 519 528 515 m 514 596 l 572 681 l 615 652 l 554 563 q 587 528 571 547 q 654 327 654 433 l 654 317 q 559 86 654 188 q 356 0 472 0 q 202 47 272 0 l 151 -28 l 150 -28 l 107 -1 l 107 1 l 161 81 q 126 119 143 98 q 61 321 61 211 l 61 323 q 153 556 61 456 q 356 644 243 644 l 359 644 q 514 596 444 644 z "},"ù":{"ha":715,"x_min":100,"x_max":612,"o":"m 270 896 l 471 772 l 471 771 l 443 726 l 242 850 l 242 851 l 270 896 m 102 644 l 152 644 l 154 642 l 154 222 q 263 64 154 100 q 335 54 298 54 l 378 54 q 543 138 494 54 q 559 224 559 174 l 559 642 l 561 644 l 611 644 l 612 642 l 612 11 l 611 9 l 561 9 l 559 11 l 559 83 q 384 0 489 0 l 330 0 q 147 77 218 0 q 100 216 100 134 l 100 642 l 102 644 z "},"ú":{"ha":715,"x_min":100,"x_max":612,"o":"m 471 851 l 471 850 l 271 726 l 242 771 l 242 772 l 444 896 l 471 851 m 102 644 l 152 644 l 154 642 l 154 222 q 263 64 154 100 q 335 54 298 54 l 378 54 q 543 138 494 54 q 559 224 559 174 l 559 642 l 561 644 l 611 644 l 612 642 l 612 11 l 611 9 l 561 9 l 559 11 l 559 83 q 384 0 489 0 l 330 0 q 147 77 218 0 q 100 216 100 134 l 100 642 l 102 644 z "},"û":{"ha":715,"x_min":100,"x_max":612,"o":"m 336 919 l 377 919 l 511 761 l 470 726 l 469 726 l 356 861 q 243 726 248 732 q 202 761 214 750 l 336 919 m 102 644 l 152 644 l 154 642 l 154 222 q 263 64 154 100 q 335 54 298 54 l 378 54 q 543 138 494 54 q 559 224 559 174 l 559 642 l 561 644 l 611 644 l 612 642 l 612 11 l 611 9 l 561 9 l 559 11 l 559 83 q 384 0 489 0 l 330 0 q 147 77 218 0 q 100 216 100 134 l 100 642 l 102 644 z "},"ü":{"ha":715,"x_min":100,"x_max":612,"o":"m 254 827 l 255 827 q 290 806 277 827 q 295 787 295 797 q 278 754 295 767 q 256 747 267 747 l 253 747 q 223 762 236 747 q 214 785 214 773 l 214 789 q 233 821 214 808 q 254 827 243 827 m 457 827 l 458 827 q 494 806 481 827 q 498 787 498 797 q 481 754 498 767 q 459 747 471 747 l 456 747 q 427 762 439 747 q 418 785 418 773 l 418 789 q 437 821 418 808 q 457 827 447 827 m 102 644 l 152 644 l 154 642 l 154 222 q 263 64 154 100 q 335 54 298 54 l 378 54 q 543 138 494 54 q 559 224 559 174 l 559 642 l 561 644 l 611 644 l 612 642 l 612 11 l 611 9 l 561 9 l 559 11 l 559 83 q 384 0 489 0 l 330 0 q 147 77 218 0 q 100 216 100 134 l 100 642 l 102 644 z "},"ý":{"ha":640,"x_min":23,"x_max":616,"o":"m 23 644 l 81 644 q 96 610 83 644 l 319 60 l 319 60 l 559 644 l 614 644 l 615 644 l 616 644 l 233 -291 l 232 -292 l 175 -292 l 175 -292 l 290 -10 l 23 644 l 23 644 m 205 771 l 205 772 l 406 896 l 434 851 l 434 850 l 233 726 l 205 771 z "},"þ":{"ha":692,"x_min":104,"x_max":703,"o":"m 157 319 q 260 96 157 185 q 404 45 328 45 q 583 132 507 45 q 650 319 650 213 q 581 509 650 425 q 403 591 505 591 q 206 483 288 591 q 157 319 157 406 m 157 504 q 313 629 211 592 q 401 644 355 644 l 406 644 q 635 526 539 644 q 703 323 703 431 l 703 313 q 608 80 703 182 q 401 -7 519 -7 q 169 115 267 -7 l 157 133 l 157 -271 l 157 -271 l 104 -271 l 104 -271 l 104 992 l 104 993 l 157 993 l 157 992 l 157 504 z "},"ÿ":{"ha":640,"x_min":23,"x_max":616,"o":"m 217 827 l 218 827 q 254 806 241 827 q 258 787 258 797 q 241 754 258 767 q 219 747 231 747 l 216 747 q 186 762 199 747 q 178 785 178 773 l 178 789 q 197 821 178 808 q 217 827 207 827 m 420 827 l 422 827 q 457 806 444 827 q 462 787 462 797 q 445 754 462 767 q 422 747 434 747 l 420 747 q 390 762 403 747 q 381 785 381 773 l 381 789 q 400 821 381 808 q 420 827 410 827 m 23 644 l 81 644 q 96 610 83 644 l 319 60 l 319 60 l 559 644 l 614 644 l 615 644 l 616 644 l 233 -291 l 232 -292 l 175 -292 l 175 -292 l 290 -10 l 23 644 l 23 644 z "}}}
